solid AssimpScene
facet normal 0 1 0
outer loop
vertex 1.5 0.0 1.5
vertex 2.713525491562421 0.0 0.6183221215612903
vertex 1.5 0.0 -1.5
endloop
endfacet
facet normal 0 1 0
outer loop
vertex 2.713525491562421 0.0 0.6183221215612903
vertex 3.9270509831248424 0.0 -0.2633557568774194
vertex 2.713525491562421 0.0 -2.3816778784387096
endloop
endfacet
facet normal 0 1 0
outer loop
vertex 3.9270509831248424 0.0 -0.2633557568774194
vertex 5.140576474687263 0.0 -1.1450336353161292
vertex 3.9270509831248424 0.0 -3.263355756877419
endloop
endfacet
facet normal 0 1 0
outer loop
vertex 5.140576474687263 0.0 -1.1450336353161292
vertex 6.354101966249685 0.0 -2.026711513754839
vertex 5.140576474687263 0.0 -4.145033635316129
endloop
endfacet
facet normal 0 1 0
outer loop
vertex 6.354101966249685 0.0 -2.026711513754839
vertex 7.567627457812106 0.0 -2.9083893921935484
vertex 6.354101966249685 0.0 -5.026711513754839
endloop
endfacet
facet normal 0 1 0
outer loop
vertex 7.567627457812106 0.0 -2.9083893921935484
vertex 8.781152949374528 0.0 -3.790067270632258
vertex 7.567627457812106 0.0 -5.908389392193549
endloop
endfacet
facet normal 0 1 0
outer loop
vertex 8.781152949374528 0.0 -3.790067270632258
vertex 9.99467844093695 0.0 -4.671745149070968
vertex 8.781152949374528 0.0 -6.790067270632259
endloop
endfacet
facet normal 0 1 0
outer loop
vertex 9.99467844093695 0.0 -4.671745149070968
vertex 11.208203932499371 0.0 -5.553423027509678
vertex 9.99467844093695 0.0 -7.671745149070969
endloop
endfacet
facet normal 0 1 0
outer loop
vertex 11.208203932499371 0.0 -5.553423027509678
vertex 12.421729424061793 0.0 -6.435100905948388
vertex 11.208203932499371 0.0 -8.553423027509679
endloop
endfacet
facet normal 0 1 0
outer loop
vertex 12.421729424061793 0.0 -6.435100905948388
vertex 13.635254915624214 0.0 -7.316778784387098
vertex 12.421729424061793 0.0 -9.435100905948389
endloop
endfacet
facet normal 0 1 0
outer loop
vertex 13.635254915624214 0.0 -7.316778784387098
vertex 14.848780407186636 0.0 -8.198456662825807
vertex 13.635254915624214 0.0 -10.316778784387099
endloop
endfacet
facet normal 0 1 0
outer loop
vertex 14.848780407186636 0.0 -8.198456662825807
vertex 16.062305898749056 0.0 -9.080134541264517
vertex 14.848780407186636 0.0 -11.198456662825809
endloop
endfacet
facet normal 0 1 0
outer loop
vertex 16.062305898749056 0.0 -9.080134541264517
vertex 17.275831390311478 0.0 -9.961812419703227
vertex 16.062305898749056 0.0 -12.080134541264519
endloop
endfacet
facet normal 0 1 0
outer loop
vertex 17.275831390311478 0.0 -9.961812419703227
vertex 18.4893568818739 0.0 -10.843490298141937
vertex 17.275831390311478 0.0 -12.961812419703229
endloop
endfacet
facet normal 0 1 0
outer loop
vertex 18.4893568818739 0.0 -10.843490298141937
vertex 19.70288237343632 0.0 -11.725168176580647
vertex 18.4893568818739 0.0 -13.843490298141939
endloop
endfacet
facet normal 0 1 0
outer loop
vertex 19.70288237343632 0.0 -11.725168176580647
vertex 20.916407864998742 0.0 -12.606846055019357
vertex 19.70288237343632 0.0 -14.725168176580649
endloop
endfacet
facet normal 0 1 0
outer loop
vertex 20.916407864998742 0.0 -12.606846055019357
vertex 22.129933356561164 0.0 -13.488523933458067
vertex 20.916407864998742 0.0 -15.606846055019359
endloop
endfacet
facet normal 0 1 0
outer loop
vertex 22.129933356561164 0.0 -13.488523933458067
vertex 23.343458848123586 0.0 -14.370201811896777
vertex 22.129933356561164 0.0 -16.48852393345807
endloop
endfacet
facet normal 0 1 0
outer loop
vertex 23.343458848123586 0.0 -14.370201811896777
vertex 24.556984339686007 0.0 -15.251879690335487
vertex 23.343458848123586 0.0 -17.370201811896777
endloop
endfacet
facet normal 0 1 0
outer loop
vertex 24.556984339686007 0.0 -15.251879690335487
vertex 25.77050983124843 0.0 -16.133557568774197
vertex 24.556984339686007 0.0 -18.251879690335485
endloop
endfacet
facet normal 0 1 0
outer loop
vertex 25.77050983124843 0.0 -16.133557568774197
vertex 26.98403532281085 0.0 -17.015235447212905
vertex 25.77050983124843 0.0 -19.133557568774194
endloop
endfacet
facet normal 0 1 0
outer loop
vertex 26.98403532281085 0.0 -17.015235447212905
vertex 28.197560814373272 0.0 -17.896913325651614
vertex 26.98403532281085 0.0 -20.015235447212902
endloop
endfacet
facet normal 0 1 0
outer loop
vertex 28.197560814373272 0.0 -17.896913325651614
vertex 29.411086305935694 0.0 -18.778591204090322
vertex 28.197560814373272 0.0 -20.89691332565161
endloop
endfacet
facet normal 0 1 0
outer loop
vertex 29.411086305935694 0.0 -18.778591204090322
vertex 30.624611797498115 0.0 -19.66026908252903
vertex 29.411086305935694 0.0 -21.77859120409032
endloop
endfacet
facet normal 0 1 0
outer loop
vertex 30.624611797498115 0.0 -19.66026908252903
vertex 31.838137289060537 0.0 -20.54194696096774
vertex 30.624611797498115 0.0 -22.660269082529027
endloop
endfacet
facet normal 0 1 0
outer loop
vertex 31.838137289060537 0.0 -20.54194696096774
vertex 33.051662780622955 0.0 -21.423624839406447
vertex 31.838137289060537 0.0 -23.541946960967735
endloop
endfacet
facet normal 0 1 0
outer loop
vertex 33.051662780622955 0.0 -21.423624839406447
vertex 34.26518827218538 0.0 -22.305302717845155
vertex 33.051662780622955 0.0 -24.423624839406443
endloop
endfacet
facet normal 0 1 0
outer loop
vertex 1.5 0.0 -1.5
vertex 2.713525491562421 0.0 0.6183221215612903
vertex 2.713525491562421 0.0 -2.3816778784387096
endloop
endfacet
facet normal 0 1 0
outer loop
vertex 2.713525491562421 0.0 -2.3816778784387096
vertex 3.9270509831248424 0.0 -0.2633557568774194
vertex 3.9270509831248424 0.0 -3.263355756877419
endloop
endfacet
facet normal 0 1 0
outer loop
vertex 3.9270509831248424 0.0 -3.263355756877419
vertex 5.140576474687263 0.0 -1.1450336353161292
vertex 5.140576474687263 0.0 -4.145033635316129
endloop
endfacet
facet normal 0 1 0
outer loop
vertex 5.140576474687263 0.0 -4.145033635316129
vertex 6.354101966249685 0.0 -2.026711513754839
vertex 6.354101966249685 0.0 -5.026711513754839
endloop
endfacet
facet normal 0 1 0
outer loop
vertex 6.354101966249685 0.0 -5.026711513754839
vertex 7.567627457812106 0.0 -2.9083893921935484
vertex 7.567627457812106 0.0 -5.908389392193549
endloop
endfacet
facet normal 0 1 0
outer loop
vertex 7.567627457812106 0.0 -5.908389392193549
vertex 8.781152949374528 0.0 -3.790067270632258
vertex 8.781152949374528 0.0 -6.790067270632259
endloop
endfacet
facet normal 0 1 0
outer loop
vertex 8.781152949374528 0.0 -6.790067270632259
vertex 9.99467844093695 0.0 -4.671745149070968
vertex 9.99467844093695 0.0 -7.671745149070969
endloop
endfacet
facet normal 0 1 0
outer loop
vertex 9.99467844093695 0.0 -7.671745149070969
vertex 11.208203932499371 0.0 -5.553423027509678
vertex 11.208203932499371 0.0 -8.553423027509679
endloop
endfacet
facet normal 0 1 0
outer loop
vertex 11.208203932499371 0.0 -8.553423027509679
vertex 12.421729424061793 0.0 -6.435100905948388
vertex 12.421729424061793 0.0 -9.435100905948389
endloop
endfacet
facet normal 0 1 0
outer loop
vertex 12.421729424061793 0.0 -9.435100905948389
vertex 13.635254915624214 0.0 -7.316778784387098
vertex 13.635254915624214 0.0 -10.316778784387099
endloop
endfacet
facet normal 0 1 0
outer loop
vertex 13.635254915624214 0.0 -10.316778784387099
vertex 14.848780407186636 0.0 -8.198456662825807
vertex 14.848780407186636 0.0 -11.198456662825809
endloop
endfacet
facet normal 0 1 0
outer loop
vertex 14.848780407186636 0.0 -11.198456662825809
vertex 16.062305898749056 0.0 -9.080134541264517
vertex 16.062305898749056 0.0 -12.080134541264519
endloop
endfacet
facet normal 0 1 0
outer loop
vertex 16.062305898749056 0.0 -12.080134541264519
vertex 17.275831390311478 0.0 -9.961812419703227
vertex 17.275831390311478 0.0 -12.961812419703229
endloop
endfacet
facet normal 0 1 0
outer loop
vertex 17.275831390311478 0.0 -12.961812419703229
vertex 18.4893568818739 0.0 -10.843490298141937
vertex 18.4893568818739 0.0 -13.843490298141939
endloop
endfacet
facet normal 0 1 0
outer loop
vertex 18.4893568818739 0.0 -13.843490298141939
vertex 19.70288237343632 0.0 -11.725168176580647
vertex 19.70288237343632 0.0 -14.725168176580649
endloop
endfacet
facet normal 0 1 0
outer loop
vertex 19.70288237343632 0.0 -14.725168176580649
vertex 20.916407864998742 0.0 -12.606846055019357
vertex 20.916407864998742 0.0 -15.606846055019359
endloop
endfacet
facet normal 0 1 0
outer loop
vertex 20.916407864998742 0.0 -15.606846055019359
vertex 22.129933356561164 0.0 -13.488523933458067
vertex 22.129933356561164 0.0 -16.48852393345807
endloop
endfacet
facet normal 0 1 0
outer loop
vertex 22.129933356561164 0.0 -16.48852393345807
vertex 23.343458848123586 0.0 -14.370201811896777
vertex 23.343458848123586 0.0 -17.370201811896777
endloop
endfacet
facet normal 0 1 0
outer loop
vertex 23.343458848123586 0.0 -17.370201811896777
vertex 24.556984339686007 0.0 -15.251879690335487
vertex 24.556984339686007 0.0 -18.251879690335485
endloop
endfacet
facet normal 0 1 0
outer loop
vertex 24.556984339686007 0.0 -18.251879690335485
vertex 25.77050983124843 0.0 -16.133557568774197
vertex 25.77050983124843 0.0 -19.133557568774194
endloop
endfacet
facet normal 0 1 0
outer loop
vertex 25.77050983124843 0.0 -19.133557568774194
vertex 26.98403532281085 0.0 -17.015235447212905
vertex 26.98403532281085 0.0 -20.015235447212902
endloop
endfacet
facet normal 0 1 0
outer loop
vertex 26.98403532281085 0.0 -20.015235447212902
vertex 28.197560814373272 0.0 -17.896913325651614
vertex 28.197560814373272 0.0 -20.89691332565161
endloop
endfacet
facet normal 0 1 0
outer loop
vertex 28.197560814373272 0.0 -20.89691332565161
vertex 29.411086305935694 0.0 -18.778591204090322
vertex 29.411086305935694 0.0 -21.77859120409032
endloop
endfacet
facet normal 0 1 0
outer loop
vertex 29.411086305935694 0.0 -21.77859120409032
vertex 30.624611797498115 0.0 -19.66026908252903
vertex 30.624611797498115 0.0 -22.660269082529027
endloop
endfacet
facet normal 0 1 0
outer loop
vertex 30.624611797498115 0.0 -22.660269082529027
vertex 31.838137289060537 0.0 -20.54194696096774
vertex 31.838137289060537 0.0 -23.541946960967735
endloop
endfacet
facet normal 0 1 0
outer loop
vertex 31.838137289060537 0.0 -23.541946960967735
vertex 33.051662780622955 0.0 -21.423624839406447
vertex 33.051662780622955 0.0 -24.423624839406443
endloop
endfacet
facet normal 0 1 0
outer loop
vertex 33.051662780622955 0.0 -24.423624839406443
vertex 34.26518827218538 0.0 -22.305302717845155
vertex 34.26518827218538 0.0 -25.30530271784515
endloop
endfacet
facet normal 0 1 0
outer loop
vertex -1.5 0.0 1.5
vertex -1.5 0.0 -1.5
vertex -2.713525491562421 0.0 0.6183221215612903
endloop
endfacet
facet normal 0 1 0
outer loop
vertex -2.713525491562421 0.0 0.6183221215612903
vertex -2.713525491562421 0.0 -2.3816778784387096
vertex -3.9270509831248424 0.0 -0.2633557568774194
endloop
endfacet
facet normal 0 1 0
outer loop
vertex -3.9270509831248424 0.0 -0.2633557568774194
vertex -3.9270509831248424 0.0 -3.263355756877419
vertex -5.140576474687263 0.0 -1.1450336353161292
endloop
endfacet
facet normal 0 1 0
outer loop
vertex -5.140576474687263 0.0 -1.1450336353161292
vertex -5.140576474687263 0.0 -4.145033635316129
vertex -6.354101966249685 0.0 -2.026711513754839
endloop
endfacet
facet normal 0 1 0
outer loop
vertex -6.354101966249685 0.0 -2.026711513754839
vertex -6.354101966249685 0.0 -5.026711513754839
vertex -7.567627457812106 0.0 -2.9083893921935484
endloop
endfacet
facet normal 0 1 0
outer loop
vertex -7.567627457812106 0.0 -2.9083893921935484
vertex -7.567627457812106 0.0 -5.908389392193549
vertex -8.781152949374528 0.0 -3.790067270632258
endloop
endfacet
facet normal 0 1 0
outer loop
vertex -8.781152949374528 0.0 -3.790067270632258
vertex -8.781152949374528 0.0 -6.790067270632259
vertex -9.99467844093695 0.0 -4.671745149070968
endloop
endfacet
facet normal 0 1 0
outer loop
vertex -9.99467844093695 0.0 -4.671745149070968
vertex -9.99467844093695 0.0 -7.671745149070969
vertex -11.208203932499371 0.0 -5.553423027509678
endloop
endfacet
facet normal 0 1 0
outer loop
vertex -11.208203932499371 0.0 -5.553423027509678
vertex -11.208203932499371 0.0 -8.553423027509679
vertex -12.421729424061793 0.0 -6.435100905948388
endloop
endfacet
facet normal 0 1 0
outer loop
vertex -12.421729424061793 0.0 -6.435100905948388
vertex -12.421729424061793 0.0 -9.435100905948389
vertex -13.635254915624214 0.0 -7.316778784387098
endloop
endfacet
facet normal 0 1 0
outer loop
vertex -13.635254915624214 0.0 -7.316778784387098
vertex -13.635254915624214 0.0 -10.316778784387099
vertex -14.848780407186636 0.0 -8.198456662825807
endloop
endfacet
facet normal 0 1 0
outer loop
vertex -14.848780407186636 0.0 -8.198456662825807
vertex -14.848780407186636 0.0 -11.198456662825809
vertex -16.062305898749056 0.0 -9.080134541264517
endloop
endfacet
facet normal 0 1 0
outer loop
vertex -16.062305898749056 0.0 -9.080134541264517
vertex -16.062305898749056 0.0 -12.080134541264519
vertex -17.275831390311478 0.0 -9.961812419703227
endloop
endfacet
facet normal 0 1 0
outer loop
vertex -17.275831390311478 0.0 -9.961812419703227
vertex -17.275831390311478 0.0 -12.961812419703229
vertex -18.4893568818739 0.0 -10.843490298141937
endloop
endfacet
facet normal 0 1 0
outer loop
vertex -18.4893568818739 0.0 -10.843490298141937
vertex -18.4893568818739 0.0 -13.843490298141939
vertex -19.70288237343632 0.0 -11.725168176580647
endloop
endfacet
facet normal 0 1 0
outer loop
vertex -19.70288237343632 0.0 -11.725168176580647
vertex -19.70288237343632 0.0 -14.725168176580649
vertex -20.916407864998742 0.0 -12.606846055019357
endloop
endfacet
facet normal 0 1 0
outer loop
vertex -20.916407864998742 0.0 -12.606846055019357
vertex -20.916407864998742 0.0 -15.606846055019359
vertex -22.129933356561164 0.0 -13.488523933458067
endloop
endfacet
facet normal 0 1 0
outer loop
vertex -22.129933356561164 0.0 -13.488523933458067
vertex -22.129933356561164 0.0 -16.48852393345807
vertex -23.343458848123586 0.0 -14.370201811896777
endloop
endfacet
facet normal 0 1 0
outer loop
vertex -23.343458848123586 0.0 -14.370201811896777
vertex -23.343458848123586 0.0 -17.370201811896777
vertex -24.556984339686007 0.0 -15.251879690335487
endloop
endfacet
facet normal 0 1 0
outer loop
vertex -24.556984339686007 0.0 -15.251879690335487
vertex -24.556984339686007 0.0 -18.251879690335485
vertex -25.77050983124843 0.0 -16.133557568774197
endloop
endfacet
facet normal 0 1 0
outer loop
vertex -25.77050983124843 0.0 -16.133557568774197
vertex -25.77050983124843 0.0 -19.133557568774194
vertex -26.98403532281085 0.0 -17.015235447212905
endloop
endfacet
facet normal 0 1 0
outer loop
vertex -26.98403532281085 0.0 -17.015235447212905
vertex -26.98403532281085 0.0 -20.015235447212902
vertex -28.197560814373272 0.0 -17.896913325651614
endloop
endfacet
facet normal 0 1 0
outer loop
vertex -28.197560814373272 0.0 -17.896913325651614
vertex -28.197560814373272 0.0 -20.89691332565161
vertex -29.411086305935694 0.0 -18.778591204090322
endloop
endfacet
facet normal 0 1 0
outer loop
vertex -29.411086305935694 0.0 -18.778591204090322
vertex -29.411086305935694 0.0 -21.77859120409032
vertex -30.624611797498115 0.0 -19.66026908252903
endloop
endfacet
facet normal 0 1 0
outer loop
vertex -30.624611797498115 0.0 -19.66026908252903
vertex -30.624611797498115 0.0 -22.660269082529027
vertex -31.838137289060537 0.0 -20.54194696096774
endloop
endfacet
facet normal 0 1 0
outer loop
vertex -31.838137289060537 0.0 -20.54194696096774
vertex -31.838137289060537 0.0 -23.541946960967735
vertex -33.051662780622955 0.0 -21.423624839406447
endloop
endfacet
facet normal 0 1 0
outer loop
vertex -33.051662780622955 0.0 -21.423624839406447
vertex -33.051662780622955 0.0 -24.423624839406443
vertex -34.26518827218538 0.0 -22.305302717845155
endloop
endfacet
facet normal 0 1 0
outer loop
vertex -1.5 0.0 -1.5
vertex -2.713525491562421 0.0 -2.3816778784387096
vertex -2.713525491562421 0.0 0.6183221215612903
endloop
endfacet
facet normal 0 1 0
outer loop
vertex -2.713525491562421 0.0 -2.3816778784387096
vertex -3.9270509831248424 0.0 -3.263355756877419
vertex -3.9270509831248424 0.0 -0.2633557568774194
endloop
endfacet
facet normal 0 1 0
outer loop
vertex -3.9270509831248424 0.0 -3.263355756877419
vertex -5.140576474687263 0.0 -4.145033635316129
vertex -5.140576474687263 0.0 -1.1450336353161292
endloop
endfacet
facet normal 0 1 0
outer loop
vertex -5.140576474687263 0.0 -4.145033635316129
vertex -6.354101966249685 0.0 -5.026711513754839
vertex -6.354101966249685 0.0 -2.026711513754839
endloop
endfacet
facet normal 0 1 0
outer loop
vertex -6.354101966249685 0.0 -5.026711513754839
vertex -7.567627457812106 0.0 -5.908389392193549
vertex -7.567627457812106 0.0 -2.9083893921935484
endloop
endfacet
facet normal 0 1 0
outer loop
vertex -7.567627457812106 0.0 -5.908389392193549
vertex -8.781152949374528 0.0 -6.790067270632259
vertex -8.781152949374528 0.0 -3.790067270632258
endloop
endfacet
facet normal 0 1 0
outer loop
vertex -8.781152949374528 0.0 -6.790067270632259
vertex -9.99467844093695 0.0 -7.671745149070969
vertex -9.99467844093695 0.0 -4.671745149070968
endloop
endfacet
facet normal 0 1 0
outer loop
vertex -9.99467844093695 0.0 -7.671745149070969
vertex -11.208203932499371 0.0 -8.553423027509679
vertex -11.208203932499371 0.0 -5.553423027509678
endloop
endfacet
facet normal 0 1 0
outer loop
vertex -11.208203932499371 0.0 -8.553423027509679
vertex -12.421729424061793 0.0 -9.435100905948389
vertex -12.421729424061793 0.0 -6.435100905948388
endloop
endfacet
facet normal 0 1 0
outer loop
vertex -12.421729424061793 0.0 -9.435100905948389
vertex -13.635254915624214 0.0 -10.316778784387099
vertex -13.635254915624214 0.0 -7.316778784387098
endloop
endfacet
facet normal 0 1 0
outer loop
vertex -13.635254915624214 0.0 -10.316778784387099
vertex -14.848780407186636 0.0 -11.198456662825809
vertex -14.848780407186636 0.0 -8.198456662825807
endloop
endfacet
facet normal 0 1 0
outer loop
vertex -14.848780407186636 0.0 -11.198456662825809
vertex -16.062305898749056 0.0 -12.080134541264519
vertex -16.062305898749056 0.0 -9.080134541264517
endloop
endfacet
facet normal 0 1 0
outer loop
vertex -16.062305898749056 0.0 -12.080134541264519
vertex -17.275831390311478 0.0 -12.961812419703229
vertex -17.275831390311478 0.0 -9.961812419703227
endloop
endfacet
facet normal 0 1 0
outer loop
vertex -17.275831390311478 0.0 -12.961812419703229
vertex -18.4893568818739 0.0 -13.843490298141939
vertex -18.4893568818739 0.0 -10.843490298141937
endloop
endfacet
facet normal 0 1 0
outer loop
vertex -18.4893568818739 0.0 -13.843490298141939
vertex -19.70288237343632 0.0 -14.725168176580649
vertex -19.70288237343632 0.0 -11.725168176580647
endloop
endfacet
facet normal 0 1 0
outer loop
vertex -19.70288237343632 0.0 -14.725168176580649
vertex -20.916407864998742 0.0 -15.606846055019359
vertex -20.916407864998742 0.0 -12.606846055019357
endloop
endfacet
facet normal 0 1 0
outer loop
vertex -20.916407864998742 0.0 -15.606846055019359
vertex -22.129933356561164 0.0 -16.48852393345807
vertex -22.129933356561164 0.0 -13.488523933458067
endloop
endfacet
facet normal 0 1 0
outer loop
vertex -22.129933356561164 0.0 -16.48852393345807
vertex -23.343458848123586 0.0 -17.370201811896777
vertex -23.343458848123586 0.0 -14.370201811896777
endloop
endfacet
facet normal 0 1 0
outer loop
vertex -23.343458848123586 0.0 -17.370201811896777
vertex -24.556984339686007 0.0 -18.251879690335485
vertex -24.556984339686007 0.0 -15.251879690335487
endloop
endfacet
facet normal 0 1 0
outer loop
vertex -24.556984339686007 0.0 -18.251879690335485
vertex -25.77050983124843 0.0 -19.133557568774194
vertex -25.77050983124843 0.0 -16.133557568774197
endloop
endfacet
facet normal 0 1 0
outer loop
vertex -25.77050983124843 0.0 -19.133557568774194
vertex -26.98403532281085 0.0 -20.015235447212902
vertex -26.98403532281085 0.0 -17.015235447212905
endloop
endfacet
facet normal 0 1 0
outer loop
vertex -26.98403532281085 0.0 -20.015235447212902
vertex -28.197560814373272 0.0 -20.89691332565161
vertex -28.197560814373272 0.0 -17.896913325651614
endloop
endfacet
facet normal 0 1 0
outer loop
vertex -28.197560814373272 0.0 -20.89691332565161
vertex -29.411086305935694 0.0 -21.77859120409032
vertex -29.411086305935694 0.0 -18.778591204090322
endloop
endfacet
facet normal 0 1 0
outer loop
vertex -29.411086305935694 0.0 -21.77859120409032
vertex -30.624611797498115 0.0 -22.660269082529027
vertex -30.624611797498115 0.0 -19.66026908252903
endloop
endfacet
facet normal 0 1 0
outer loop
vertex -30.624611797498115 0.0 -22.660269082529027
vertex -31.838137289060537 0.0 -23.541946960967735
vertex -31.838137289060537 0.0 -20.54194696096774
endloop
endfacet
facet normal 0 1 0
outer loop
vertex -31.838137289060537 0.0 -23.541946960967735
vertex -33.051662780622955 0.0 -24.423624839406443
vertex -33.051662780622955 0.0 -21.423624839406447
endloop
endfacet
facet normal 0 1 0
outer loop
vertex -33.051662780622955 0.0 -24.423624839406443
vertex -34.26518827218538 0.0 -25.30530271784515
vertex -34.26518827218538 0.0 -22.305302717845155
endloop
endfacet
facet normal 0 1 0
outer loop
vertex -1.5 0.0 1.5
vertex -1.5 0.0 3.0
vertex 1.5 0.0 1.5
endloop
endfacet
facet normal 0 1 0
outer loop
vertex -1.5 0.0 3.0
vertex -1.5 0.0 4.5
vertex 1.5 0.0 3.0
endloop
endfacet
facet normal 0 1 0
outer loop
vertex -1.5 0.0 4.5
vertex -1.5 0.0 6.0
vertex 1.5 0.0 4.5
endloop
endfacet
facet normal 0 1 0
outer loop
vertex -1.5 0.0 6.0
vertex -1.5 0.0 7.5
vertex 1.5 0.0 6.0
endloop
endfacet
facet normal 0 1 0
outer loop
vertex -1.5 0.0 7.5
vertex -1.5 0.0 9.0
vertex 1.5 0.0 7.5
endloop
endfacet
facet normal 0 1 0
outer loop
vertex -1.5 0.0 9.0
vertex -1.5 0.0 10.5
vertex 1.5 0.0 9.0
endloop
endfacet
facet normal 0 1 0
outer loop
vertex -1.5 0.0 10.5
vertex -1.5 0.0 12.0
vertex 1.5 0.0 10.5
endloop
endfacet
facet normal 0 1 0
outer loop
vertex -1.5 0.0 12.0
vertex -1.5 0.0 13.5
vertex 1.5 0.0 12.0
endloop
endfacet
facet normal 0 1 0
outer loop
vertex -1.5 0.0 13.5
vertex -1.5 0.0 15.0
vertex 1.5 0.0 13.5
endloop
endfacet
facet normal 0 1 0
outer loop
vertex -1.5 0.0 15.0
vertex -1.5 0.0 16.5
vertex 1.5 0.0 15.0
endloop
endfacet
facet normal 0 1 0
outer loop
vertex -1.5 0.0 16.5
vertex -1.5 0.0 18.0
vertex 1.5 0.0 16.5
endloop
endfacet
facet normal 0 1 0
outer loop
vertex -1.5 0.0 18.0
vertex -1.5 0.0 19.5
vertex 1.5 0.0 18.0
endloop
endfacet
facet normal 0 1 0
outer loop
vertex -1.5 0.0 19.5
vertex -1.5 0.0 21.0
vertex 1.5 0.0 19.5
endloop
endfacet
facet normal 0 1 0
outer loop
vertex -1.5 0.0 21.0
vertex -1.5 0.0 22.5
vertex 1.5 0.0 21.0
endloop
endfacet
facet normal 0 1 0
outer loop
vertex -1.5 0.0 22.5
vertex -1.5 0.0 24.0
vertex 1.5 0.0 22.5
endloop
endfacet
facet normal 0 1 0
outer loop
vertex -1.5 0.0 24.0
vertex -1.5 0.0 25.5
vertex 1.5 0.0 24.0
endloop
endfacet
facet normal 0 1 0
outer loop
vertex -1.5 0.0 25.5
vertex -1.5 0.0 27.0
vertex 1.5 0.0 25.5
endloop
endfacet
facet normal 0 1 0
outer loop
vertex -1.5 0.0 27.0
vertex -1.5 0.0 28.5
vertex 1.5 0.0 27.0
endloop
endfacet
facet normal 0 1 0
outer loop
vertex -1.5 0.0 28.5
vertex -1.5 0.0 30.0
vertex 1.5 0.0 28.5
endloop
endfacet
facet normal 0 1 0
outer loop
vertex -1.5 0.0 30.0
vertex -1.5 0.0 31.5
vertex 1.5 0.0 30.0
endloop
endfacet
facet normal 0 1 0
outer loop
vertex -1.5 0.0 31.5
vertex -1.5 0.0 33.0
vertex 1.5 0.0 31.5
endloop
endfacet
facet normal 0 1 0
outer loop
vertex -1.5 0.0 33.0
vertex -1.5 0.0 34.5
vertex 1.5 0.0 33.0
endloop
endfacet
facet normal 0 1 0
outer loop
vertex -1.5 0.0 34.5
vertex -1.5 0.0 36.0
vertex 1.5 0.0 34.5
endloop
endfacet
facet normal 0 1 0
outer loop
vertex -1.5 0.0 36.0
vertex -1.5 0.0 37.5
vertex 1.5 0.0 36.0
endloop
endfacet
facet normal 0 1 0
outer loop
vertex -1.5 0.0 37.5
vertex -1.5 0.0 39.0
vertex 1.5 0.0 37.5
endloop
endfacet
facet normal 0 1 0
outer loop
vertex -1.5 0.0 39.0
vertex -1.5 0.0 40.5
vertex 1.5 0.0 39.0
endloop
endfacet
facet normal 0 1 0
outer loop
vertex -1.5 0.0 40.5
vertex -1.5 0.0 42.0
vertex 1.5 0.0 40.5
endloop
endfacet
facet normal 0 1 0
outer loop
vertex 1.5 0.0 1.5
vertex -1.5 0.0 3.0
vertex 1.5 0.0 3.0
endloop
endfacet
facet normal 0 1 0
outer loop
vertex 1.5 0.0 3.0
vertex -1.5 0.0 4.5
vertex 1.5 0.0 4.5
endloop
endfacet
facet normal 0 1 0
outer loop
vertex 1.5 0.0 4.5
vertex -1.5 0.0 6.0
vertex 1.5 0.0 6.0
endloop
endfacet
facet normal 0 1 0
outer loop
vertex 1.5 0.0 6.0
vertex -1.5 0.0 7.5
vertex 1.5 0.0 7.5
endloop
endfacet
facet normal 0 1 0
outer loop
vertex 1.5 0.0 7.5
vertex -1.5 0.0 9.0
vertex 1.5 0.0 9.0
endloop
endfacet
facet normal 0 1 0
outer loop
vertex 1.5 0.0 9.0
vertex -1.5 0.0 10.5
vertex 1.5 0.0 10.5
endloop
endfacet
facet normal 0 1 0
outer loop
vertex 1.5 0.0 10.5
vertex -1.5 0.0 12.0
vertex 1.5 0.0 12.0
endloop
endfacet
facet normal 0 1 0
outer loop
vertex 1.5 0.0 12.0
vertex -1.5 0.0 13.5
vertex 1.5 0.0 13.5
endloop
endfacet
facet normal 0 1 0
outer loop
vertex 1.5 0.0 13.5
vertex -1.5 0.0 15.0
vertex 1.5 0.0 15.0
endloop
endfacet
facet normal 0 1 0
outer loop
vertex 1.5 0.0 15.0
vertex -1.5 0.0 16.5
vertex 1.5 0.0 16.5
endloop
endfacet
facet normal 0 1 0
outer loop
vertex 1.5 0.0 16.5
vertex -1.5 0.0 18.0
vertex 1.5 0.0 18.0
endloop
endfacet
facet normal 0 1 0
outer loop
vertex 1.5 0.0 18.0
vertex -1.5 0.0 19.5
vertex 1.5 0.0 19.5
endloop
endfacet
facet normal 0 1 0
outer loop
vertex 1.5 0.0 19.5
vertex -1.5 0.0 21.0
vertex 1.5 0.0 21.0
endloop
endfacet
facet normal 0 1 0
outer loop
vertex 1.5 0.0 21.0
vertex -1.5 0.0 22.5
vertex 1.5 0.0 22.5
endloop
endfacet
facet normal 0 1 0
outer loop
vertex 1.5 0.0 22.5
vertex -1.5 0.0 24.0
vertex 1.5 0.0 24.0
endloop
endfacet
facet normal 0 1 0
outer loop
vertex 1.5 0.0 24.0
vertex -1.5 0.0 25.5
vertex 1.5 0.0 25.5
endloop
endfacet
facet normal 0 1 0
outer loop
vertex 1.5 0.0 25.5
vertex -1.5 0.0 27.0
vertex 1.5 0.0 27.0
endloop
endfacet
facet normal 0 1 0
outer loop
vertex 1.5 0.0 27.0
vertex -1.5 0.0 28.5
vertex 1.5 0.0 28.5
endloop
endfacet
facet normal 0 1 0
outer loop
vertex 1.5 0.0 28.5
vertex -1.5 0.0 30.0
vertex 1.5 0.0 30.0
endloop
endfacet
facet normal 0 1 0
outer loop
vertex 1.5 0.0 30.0
vertex -1.5 0.0 31.5
vertex 1.5 0.0 31.5
endloop
endfacet
facet normal 0 1 0
outer loop
vertex 1.5 0.0 31.5
vertex -1.5 0.0 33.0
vertex 1.5 0.0 33.0
endloop
endfacet
facet normal 0 1 0
outer loop
vertex 1.5 0.0 33.0
vertex -1.5 0.0 34.5
vertex 1.5 0.0 34.5
endloop
endfacet
facet normal 0 1 0
outer loop
vertex 1.5 0.0 34.5
vertex -1.5 0.0 36.0
vertex 1.5 0.0 36.0
endloop
endfacet
facet normal 0 1 0
outer loop
vertex 1.5 0.0 36.0
vertex -1.5 0.0 37.5
vertex 1.5 0.0 37.5
endloop
endfacet
facet normal 0 1 0
outer loop
vertex 1.5 0.0 37.5
vertex -1.5 0.0 39.0
vertex 1.5 0.0 39.0
endloop
endfacet
facet normal 0 1 0
outer loop
vertex 1.5 0.0 39.0
vertex -1.5 0.0 40.5
vertex 1.5 0.0 40.5
endloop
endfacet
facet normal 0 1 0
outer loop
vertex 1.5 0.0 40.5
vertex -1.5 0.0 42.0
vertex 1.5 0.0 42.0
endloop
endfacet
endsolid AssimpScene
