solid AssimpScene
facet normal 0 1 0
outer loop
vertex 1.5 0.0 83.0
vertex 2.713525491562421 0.0 82.11832212156129
vertex 1.5 0.0 80.0
endloop
endfacet
facet normal 0 1 0
outer loop
vertex 2.713525491562421 0.0 82.11832212156129
vertex 3.9270509831248424 0.0 81.23664424312258
vertex 2.713525491562421 0.0 79.11832212156129
endloop
endfacet
facet normal 0 1 0
outer loop
vertex 3.9270509831248424 0.0 81.23664424312258
vertex 5.140576474687263 0.0 80.35496636468388
vertex 3.9270509831248424 0.0 78.23664424312258
endloop
endfacet
facet normal 0 1 0
outer loop
vertex 5.140576474687263 0.0 80.35496636468388
vertex 6.354101966249685 0.0 79.47328848624517
vertex 5.140576474687263 0.0 77.35496636468388
endloop
endfacet
facet normal 0 1 0
outer loop
vertex 6.354101966249685 0.0 79.47328848624517
vertex 7.567627457812106 0.0 78.59161060780646
vertex 6.354101966249685 0.0 76.47328848624517
endloop
endfacet
facet normal 0 1 0
outer loop
vertex 7.567627457812106 0.0 78.59161060780646
vertex 8.781152949374528 0.0 77.70993272936775
vertex 7.567627457812106 0.0 75.59161060780646
endloop
endfacet
facet normal 0 1 0
outer loop
vertex 8.781152949374528 0.0 77.70993272936775
vertex 9.99467844093695 0.0 76.82825485092904
vertex 8.781152949374528 0.0 74.70993272936775
endloop
endfacet
facet normal 0 1 0
outer loop
vertex 9.99467844093695 0.0 76.82825485092904
vertex 11.208203932499371 0.0 75.94657697249033
vertex 9.99467844093695 0.0 73.82825485092904
endloop
endfacet
facet normal 0 1 0
outer loop
vertex 11.208203932499371 0.0 75.94657697249033
vertex 12.421729424061793 0.0 75.06489909405163
vertex 11.208203932499371 0.0 72.94657697249033
endloop
endfacet
facet normal 0 1 0
outer loop
vertex 12.421729424061793 0.0 75.06489909405163
vertex 13.635254915624214 0.0 74.18322121561292
vertex 12.421729424061793 0.0 72.06489909405163
endloop
endfacet
facet normal 0 1 0
outer loop
vertex 13.635254915624214 0.0 74.18322121561292
vertex 14.848780407186636 0.0 73.30154333717421
vertex 13.635254915624214 0.0 71.18322121561292
endloop
endfacet
facet normal 0 1 0
outer loop
vertex 14.848780407186636 0.0 73.30154333717421
vertex 16.062305898749056 0.0 72.4198654587355
vertex 14.848780407186636 0.0 70.30154333717421
endloop
endfacet
facet normal 0 1 0
outer loop
vertex 16.062305898749056 0.0 72.4198654587355
vertex 17.275831390311478 0.0 71.53818758029679
vertex 16.062305898749056 0.0 69.4198654587355
endloop
endfacet
facet normal 0 1 0
outer loop
vertex 17.275831390311478 0.0 71.53818758029679
vertex 18.4893568818739 0.0 70.65650970185808
vertex 17.275831390311478 0.0 68.53818758029679
endloop
endfacet
facet normal 0 1 0
outer loop
vertex 18.4893568818739 0.0 70.65650970185808
vertex 19.70288237343632 0.0 69.77483182341938
vertex 18.4893568818739 0.0 67.65650970185808
endloop
endfacet
facet normal 0 1 0
outer loop
vertex 19.70288237343632 0.0 69.77483182341938
vertex 20.916407864998742 0.0 68.89315394498067
vertex 19.70288237343632 0.0 66.77483182341938
endloop
endfacet
facet normal 0 1 0
outer loop
vertex 20.916407864998742 0.0 68.89315394498067
vertex 22.129933356561164 0.0 68.01147606654196
vertex 20.916407864998742 0.0 65.89315394498067
endloop
endfacet
facet normal 0 1 0
outer loop
vertex 22.129933356561164 0.0 68.01147606654196
vertex 23.343458848123586 0.0 67.12979818810325
vertex 22.129933356561164 0.0 65.01147606654196
endloop
endfacet
facet normal 0 1 0
outer loop
vertex 23.343458848123586 0.0 67.12979818810325
vertex 24.556984339686007 0.0 66.24812030966454
vertex 23.343458848123586 0.0 64.12979818810325
endloop
endfacet
facet normal 0 1 0
outer loop
vertex 24.556984339686007 0.0 66.24812030966454
vertex 25.77050983124843 0.0 65.36644243122583
vertex 24.556984339686007 0.0 63.24812030966454
endloop
endfacet
facet normal 0 1 0
outer loop
vertex 25.77050983124843 0.0 65.36644243122583
vertex 26.98403532281085 0.0 64.48476455278713
vertex 25.77050983124843 0.0 62.366442431225835
endloop
endfacet
facet normal 0 1 0
outer loop
vertex 26.98403532281085 0.0 64.48476455278713
vertex 28.197560814373272 0.0 63.60308667434842
vertex 26.98403532281085 0.0 61.48476455278713
endloop
endfacet
facet normal 0 1 0
outer loop
vertex 28.197560814373272 0.0 63.60308667434842
vertex 29.411086305935694 0.0 62.72140879590971
vertex 28.197560814373272 0.0 60.60308667434842
endloop
endfacet
facet normal 0 1 0
outer loop
vertex 29.411086305935694 0.0 62.72140879590971
vertex 30.624611797498115 0.0 61.839730917471
vertex 29.411086305935694 0.0 59.72140879590971
endloop
endfacet
facet normal 0 1 0
outer loop
vertex 30.624611797498115 0.0 61.839730917471
vertex 31.838137289060537 0.0 60.95805303903229
vertex 30.624611797498115 0.0 58.839730917471
endloop
endfacet
facet normal 0 1 0
outer loop
vertex 31.838137289060537 0.0 60.95805303903229
vertex 33.051662780622955 0.0 60.076375160593585
vertex 31.838137289060537 0.0 57.95805303903229
endloop
endfacet
facet normal 0 1 0
outer loop
vertex 33.051662780622955 0.0 60.076375160593585
vertex 34.26518827218538 0.0 59.19469728215488
vertex 33.051662780622955 0.0 57.076375160593585
endloop
endfacet
facet normal 0 1 0
outer loop
vertex 1.5 0.0 80.0
vertex 2.713525491562421 0.0 82.11832212156129
vertex 2.713525491562421 0.0 79.11832212156129
endloop
endfacet
facet normal 0 1 0
outer loop
vertex 2.713525491562421 0.0 79.11832212156129
vertex 3.9270509831248424 0.0 81.23664424312258
vertex 3.9270509831248424 0.0 78.23664424312258
endloop
endfacet
facet normal 0 1 0
outer loop
vertex 3.9270509831248424 0.0 78.23664424312258
vertex 5.140576474687263 0.0 80.35496636468388
vertex 5.140576474687263 0.0 77.35496636468388
endloop
endfacet
facet normal 0 1 0
outer loop
vertex 5.140576474687263 0.0 77.35496636468388
vertex 6.354101966249685 0.0 79.47328848624517
vertex 6.354101966249685 0.0 76.47328848624517
endloop
endfacet
facet normal 0 1 0
outer loop
vertex 6.354101966249685 0.0 76.47328848624517
vertex 7.567627457812106 0.0 78.59161060780646
vertex 7.567627457812106 0.0 75.59161060780646
endloop
endfacet
facet normal 0 1 0
outer loop
vertex 7.567627457812106 0.0 75.59161060780646
vertex 8.781152949374528 0.0 77.70993272936775
vertex 8.781152949374528 0.0 74.70993272936775
endloop
endfacet
facet normal 0 1 0
outer loop
vertex 8.781152949374528 0.0 74.70993272936775
vertex 9.99467844093695 0.0 76.82825485092904
vertex 9.99467844093695 0.0 73.82825485092904
endloop
endfacet
facet normal 0 1 0
outer loop
vertex 9.99467844093695 0.0 73.82825485092904
vertex 11.208203932499371 0.0 75.94657697249033
vertex 11.208203932499371 0.0 72.94657697249033
endloop
endfacet
facet normal 0 1 0
outer loop
vertex 11.208203932499371 0.0 72.94657697249033
vertex 12.421729424061793 0.0 75.06489909405163
vertex 12.421729424061793 0.0 72.06489909405163
endloop
endfacet
facet normal 0 1 0
outer loop
vertex 12.421729424061793 0.0 72.06489909405163
vertex 13.635254915624214 0.0 74.18322121561292
vertex 13.635254915624214 0.0 71.18322121561292
endloop
endfacet
facet normal 0 1 0
outer loop
vertex 13.635254915624214 0.0 71.18322121561292
vertex 14.848780407186636 0.0 73.30154333717421
vertex 14.848780407186636 0.0 70.30154333717421
endloop
endfacet
facet normal 0 1 0
outer loop
vertex 14.848780407186636 0.0 70.30154333717421
vertex 16.062305898749056 0.0 72.4198654587355
vertex 16.062305898749056 0.0 69.4198654587355
endloop
endfacet
facet normal 0 1 0
outer loop
vertex 16.062305898749056 0.0 69.4198654587355
vertex 17.275831390311478 0.0 71.53818758029679
vertex 17.275831390311478 0.0 68.53818758029679
endloop
endfacet
facet normal 0 1 0
outer loop
vertex 17.275831390311478 0.0 68.53818758029679
vertex 18.4893568818739 0.0 70.65650970185808
vertex 18.4893568818739 0.0 67.65650970185808
endloop
endfacet
facet normal 0 1 0
outer loop
vertex 18.4893568818739 0.0 67.65650970185808
vertex 19.70288237343632 0.0 69.77483182341938
vertex 19.70288237343632 0.0 66.77483182341938
endloop
endfacet
facet normal 0 1 0
outer loop
vertex 19.70288237343632 0.0 66.77483182341938
vertex 20.916407864998742 0.0 68.89315394498067
vertex 20.916407864998742 0.0 65.89315394498067
endloop
endfacet
facet normal 0 1 0
outer loop
vertex 20.916407864998742 0.0 65.89315394498067
vertex 22.129933356561164 0.0 68.01147606654196
vertex 22.129933356561164 0.0 65.01147606654196
endloop
endfacet
facet normal 0 1 0
outer loop
vertex 22.129933356561164 0.0 65.01147606654196
vertex 23.343458848123586 0.0 67.12979818810325
vertex 23.343458848123586 0.0 64.12979818810325
endloop
endfacet
facet normal 0 1 0
outer loop
vertex 23.343458848123586 0.0 64.12979818810325
vertex 24.556984339686007 0.0 66.24812030966454
vertex 24.556984339686007 0.0 63.24812030966454
endloop
endfacet
facet normal 0 1 0
outer loop
vertex 24.556984339686007 0.0 63.24812030966454
vertex 25.77050983124843 0.0 65.36644243122583
vertex 25.77050983124843 0.0 62.366442431225835
endloop
endfacet
facet normal 0 1 0
outer loop
vertex 25.77050983124843 0.0 62.366442431225835
vertex 26.98403532281085 0.0 64.48476455278713
vertex 26.98403532281085 0.0 61.48476455278713
endloop
endfacet
facet normal 0 1 0
outer loop
vertex 26.98403532281085 0.0 61.48476455278713
vertex 28.197560814373272 0.0 63.60308667434842
vertex 28.197560814373272 0.0 60.60308667434842
endloop
endfacet
facet normal 0 1 0
outer loop
vertex 28.197560814373272 0.0 60.60308667434842
vertex 29.411086305935694 0.0 62.72140879590971
vertex 29.411086305935694 0.0 59.72140879590971
endloop
endfacet
facet normal 0 1 0
outer loop
vertex 29.411086305935694 0.0 59.72140879590971
vertex 30.624611797498115 0.0 61.839730917471
vertex 30.624611797498115 0.0 58.839730917471
endloop
endfacet
facet normal 0 1 0
outer loop
vertex 30.624611797498115 0.0 58.839730917471
vertex 31.838137289060537 0.0 60.95805303903229
vertex 31.838137289060537 0.0 57.95805303903229
endloop
endfacet
facet normal 0 1 0
outer loop
vertex 31.838137289060537 0.0 57.95805303903229
vertex 33.051662780622955 0.0 60.076375160593585
vertex 33.051662780622955 0.0 57.076375160593585
endloop
endfacet
facet normal 0 1 0
outer loop
vertex 33.051662780622955 0.0 57.076375160593585
vertex 34.26518827218538 0.0 59.19469728215488
vertex 34.26518827218538 0.0 56.19469728215488
endloop
endfacet
facet normal 0 1 0
outer loop
vertex -1.5 0.0 83.0
vertex -1.5 0.0 80.0
vertex -2.713525491562421 0.0 82.11832212156129
endloop
endfacet
facet normal 0 1 0
outer loop
vertex -2.713525491562421 0.0 82.11832212156129
vertex -2.713525491562421 0.0 79.11832212156129
vertex -3.9270509831248424 0.0 81.23664424312258
endloop
endfacet
facet normal 0 1 0
outer loop
vertex -3.9270509831248424 0.0 81.23664424312258
vertex -3.9270509831248424 0.0 78.23664424312258
vertex -5.140576474687263 0.0 80.35496636468388
endloop
endfacet
facet normal 0 1 0
outer loop
vertex -5.140576474687263 0.0 80.35496636468388
vertex -5.140576474687263 0.0 77.35496636468388
vertex -6.354101966249685 0.0 79.47328848624517
endloop
endfacet
facet normal 0 1 0
outer loop
vertex -6.354101966249685 0.0 79.47328848624517
vertex -6.354101966249685 0.0 76.47328848624517
vertex -7.567627457812106 0.0 78.59161060780646
endloop
endfacet
facet normal 0 1 0
outer loop
vertex -7.567627457812106 0.0 78.59161060780646
vertex -7.567627457812106 0.0 75.59161060780646
vertex -8.781152949374528 0.0 77.70993272936775
endloop
endfacet
facet normal 0 1 0
outer loop
vertex -8.781152949374528 0.0 77.70993272936775
vertex -8.781152949374528 0.0 74.70993272936775
vertex -9.99467844093695 0.0 76.82825485092904
endloop
endfacet
facet normal 0 1 0
outer loop
vertex -9.99467844093695 0.0 76.82825485092904
vertex -9.99467844093695 0.0 73.82825485092904
vertex -11.208203932499371 0.0 75.94657697249033
endloop
endfacet
facet normal 0 1 0
outer loop
vertex -11.208203932499371 0.0 75.94657697249033
vertex -11.208203932499371 0.0 72.94657697249033
vertex -12.421729424061793 0.0 75.06489909405163
endloop
endfacet
facet normal 0 1 0
outer loop
vertex -12.421729424061793 0.0 75.06489909405163
vertex -12.421729424061793 0.0 72.06489909405163
vertex -13.635254915624214 0.0 74.18322121561292
endloop
endfacet
facet normal 0 1 0
outer loop
vertex -13.635254915624214 0.0 74.18322121561292
vertex -13.635254915624214 0.0 71.18322121561292
vertex -14.848780407186636 0.0 73.30154333717421
endloop
endfacet
facet normal 0 1 0
outer loop
vertex -14.848780407186636 0.0 73.30154333717421
vertex -14.848780407186636 0.0 70.30154333717421
vertex -16.062305898749056 0.0 72.4198654587355
endloop
endfacet
facet normal 0 1 0
outer loop
vertex -16.062305898749056 0.0 72.4198654587355
vertex -16.062305898749056 0.0 69.4198654587355
vertex -17.275831390311478 0.0 71.53818758029679
endloop
endfacet
facet normal 0 1 0
outer loop
vertex -17.275831390311478 0.0 71.53818758029679
vertex -17.275831390311478 0.0 68.53818758029679
vertex -18.4893568818739 0.0 70.65650970185808
endloop
endfacet
facet normal 0 1 0
outer loop
vertex -18.4893568818739 0.0 70.65650970185808
vertex -18.4893568818739 0.0 67.65650970185808
vertex -19.70288237343632 0.0 69.77483182341938
endloop
endfacet
facet normal 0 1 0
outer loop
vertex -19.70288237343632 0.0 69.77483182341938
vertex -19.70288237343632 0.0 66.77483182341938
vertex -20.916407864998742 0.0 68.89315394498067
endloop
endfacet
facet normal 0 1 0
outer loop
vertex -20.916407864998742 0.0 68.89315394498067
vertex -20.916407864998742 0.0 65.89315394498067
vertex -22.129933356561164 0.0 68.01147606654196
endloop
endfacet
facet normal 0 1 0
outer loop
vertex -22.129933356561164 0.0 68.01147606654196
vertex -22.129933356561164 0.0 65.01147606654196
vertex -23.343458848123586 0.0 67.12979818810325
endloop
endfacet
facet normal 0 1 0
outer loop
vertex -23.343458848123586 0.0 67.12979818810325
vertex -23.343458848123586 0.0 64.12979818810325
vertex -24.556984339686007 0.0 66.24812030966454
endloop
endfacet
facet normal 0 1 0
outer loop
vertex -24.556984339686007 0.0 66.24812030966454
vertex -24.556984339686007 0.0 63.24812030966454
vertex -25.77050983124843 0.0 65.36644243122583
endloop
endfacet
facet normal 0 1 0
outer loop
vertex -25.77050983124843 0.0 65.36644243122583
vertex -25.77050983124843 0.0 62.366442431225835
vertex -26.98403532281085 0.0 64.48476455278713
endloop
endfacet
facet normal 0 1 0
outer loop
vertex -26.98403532281085 0.0 64.48476455278713
vertex -26.98403532281085 0.0 61.48476455278713
vertex -28.197560814373272 0.0 63.60308667434842
endloop
endfacet
facet normal 0 1 0
outer loop
vertex -28.197560814373272 0.0 63.60308667434842
vertex -28.197560814373272 0.0 60.60308667434842
vertex -29.411086305935694 0.0 62.72140879590971
endloop
endfacet
facet normal 0 1 0
outer loop
vertex -29.411086305935694 0.0 62.72140879590971
vertex -29.411086305935694 0.0 59.72140879590971
vertex -30.624611797498115 0.0 61.839730917471
endloop
endfacet
facet normal 0 1 0
outer loop
vertex -30.624611797498115 0.0 61.839730917471
vertex -30.624611797498115 0.0 58.839730917471
vertex -31.838137289060537 0.0 60.95805303903229
endloop
endfacet
facet normal 0 1 0
outer loop
vertex -31.838137289060537 0.0 60.95805303903229
vertex -31.838137289060537 0.0 57.95805303903229
vertex -33.051662780622955 0.0 60.076375160593585
endloop
endfacet
facet normal 0 1 0
outer loop
vertex -33.051662780622955 0.0 60.076375160593585
vertex -33.051662780622955 0.0 57.076375160593585
vertex -34.26518827218538 0.0 59.19469728215488
endloop
endfacet
facet normal 0 1 0
outer loop
vertex -1.5 0.0 80.0
vertex -2.713525491562421 0.0 79.11832212156129
vertex -2.713525491562421 0.0 82.11832212156129
endloop
endfacet
facet normal 0 1 0
outer loop
vertex -2.713525491562421 0.0 79.11832212156129
vertex -3.9270509831248424 0.0 78.23664424312258
vertex -3.9270509831248424 0.0 81.23664424312258
endloop
endfacet
facet normal 0 1 0
outer loop
vertex -3.9270509831248424 0.0 78.23664424312258
vertex -5.140576474687263 0.0 77.35496636468388
vertex -5.140576474687263 0.0 80.35496636468388
endloop
endfacet
facet normal 0 1 0
outer loop
vertex -5.140576474687263 0.0 77.35496636468388
vertex -6.354101966249685 0.0 76.47328848624517
vertex -6.354101966249685 0.0 79.47328848624517
endloop
endfacet
facet normal 0 1 0
outer loop
vertex -6.354101966249685 0.0 76.47328848624517
vertex -7.567627457812106 0.0 75.59161060780646
vertex -7.567627457812106 0.0 78.59161060780646
endloop
endfacet
facet normal 0 1 0
outer loop
vertex -7.567627457812106 0.0 75.59161060780646
vertex -8.781152949374528 0.0 74.70993272936775
vertex -8.781152949374528 0.0 77.70993272936775
endloop
endfacet
facet normal 0 1 0
outer loop
vertex -8.781152949374528 0.0 74.70993272936775
vertex -9.99467844093695 0.0 73.82825485092904
vertex -9.99467844093695 0.0 76.82825485092904
endloop
endfacet
facet normal 0 1 0
outer loop
vertex -9.99467844093695 0.0 73.82825485092904
vertex -11.208203932499371 0.0 72.94657697249033
vertex -11.208203932499371 0.0 75.94657697249033
endloop
endfacet
facet normal 0 1 0
outer loop
vertex -11.208203932499371 0.0 72.94657697249033
vertex -12.421729424061793 0.0 72.06489909405163
vertex -12.421729424061793 0.0 75.06489909405163
endloop
endfacet
facet normal 0 1 0
outer loop
vertex -12.421729424061793 0.0 72.06489909405163
vertex -13.635254915624214 0.0 71.18322121561292
vertex -13.635254915624214 0.0 74.18322121561292
endloop
endfacet
facet normal 0 1 0
outer loop
vertex -13.635254915624214 0.0 71.18322121561292
vertex -14.848780407186636 0.0 70.30154333717421
vertex -14.848780407186636 0.0 73.30154333717421
endloop
endfacet
facet normal 0 1 0
outer loop
vertex -14.848780407186636 0.0 70.30154333717421
vertex -16.062305898749056 0.0 69.4198654587355
vertex -16.062305898749056 0.0 72.4198654587355
endloop
endfacet
facet normal 0 1 0
outer loop
vertex -16.062305898749056 0.0 69.4198654587355
vertex -17.275831390311478 0.0 68.53818758029679
vertex -17.275831390311478 0.0 71.53818758029679
endloop
endfacet
facet normal 0 1 0
outer loop
vertex -17.275831390311478 0.0 68.53818758029679
vertex -18.4893568818739 0.0 67.65650970185808
vertex -18.4893568818739 0.0 70.65650970185808
endloop
endfacet
facet normal 0 1 0
outer loop
vertex -18.4893568818739 0.0 67.65650970185808
vertex -19.70288237343632 0.0 66.77483182341938
vertex -19.70288237343632 0.0 69.77483182341938
endloop
endfacet
facet normal 0 1 0
outer loop
vertex -19.70288237343632 0.0 66.77483182341938
vertex -20.916407864998742 0.0 65.89315394498067
vertex -20.916407864998742 0.0 68.89315394498067
endloop
endfacet
facet normal 0 1 0
outer loop
vertex -20.916407864998742 0.0 65.89315394498067
vertex -22.129933356561164 0.0 65.01147606654196
vertex -22.129933356561164 0.0 68.01147606654196
endloop
endfacet
facet normal 0 1 0
outer loop
vertex -22.129933356561164 0.0 65.01147606654196
vertex -23.343458848123586 0.0 64.12979818810325
vertex -23.343458848123586 0.0 67.12979818810325
endloop
endfacet
facet normal 0 1 0
outer loop
vertex -23.343458848123586 0.0 64.12979818810325
vertex -24.556984339686007 0.0 63.24812030966454
vertex -24.556984339686007 0.0 66.24812030966454
endloop
endfacet
facet normal 0 1 0
outer loop
vertex -24.556984339686007 0.0 63.24812030966454
vertex -25.77050983124843 0.0 62.366442431225835
vertex -25.77050983124843 0.0 65.36644243122583
endloop
endfacet
facet normal 0 1 0
outer loop
vertex -25.77050983124843 0.0 62.366442431225835
vertex -26.98403532281085 0.0 61.48476455278713
vertex -26.98403532281085 0.0 64.48476455278713
endloop
endfacet
facet normal 0 1 0
outer loop
vertex -26.98403532281085 0.0 61.48476455278713
vertex -28.197560814373272 0.0 60.60308667434842
vertex -28.197560814373272 0.0 63.60308667434842
endloop
endfacet
facet normal 0 1 0
outer loop
vertex -28.197560814373272 0.0 60.60308667434842
vertex -29.411086305935694 0.0 59.72140879590971
vertex -29.411086305935694 0.0 62.72140879590971
endloop
endfacet
facet normal 0 1 0
outer loop
vertex -29.411086305935694 0.0 59.72140879590971
vertex -30.624611797498115 0.0 58.839730917471
vertex -30.624611797498115 0.0 61.839730917471
endloop
endfacet
facet normal 0 1 0
outer loop
vertex -30.624611797498115 0.0 58.839730917471
vertex -31.838137289060537 0.0 57.95805303903229
vertex -31.838137289060537 0.0 60.95805303903229
endloop
endfacet
facet normal 0 1 0
outer loop
vertex -31.838137289060537 0.0 57.95805303903229
vertex -33.051662780622955 0.0 57.076375160593585
vertex -33.051662780622955 0.0 60.076375160593585
endloop
endfacet
facet normal 0 1 0
outer loop
vertex -33.051662780622955 0.0 57.076375160593585
vertex -34.26518827218538 0.0 56.19469728215488
vertex -34.26518827218538 0.0 59.19469728215488
endloop
endfacet
facet normal 0 1 0
outer loop
vertex -1.5 0.0 83.0
vertex -1.5 0.0 84.5
vertex 1.5 0.0 83.0
endloop
endfacet
facet normal 0 1 0
outer loop
vertex -1.5 0.0 84.5
vertex -1.5 0.0 86.0
vertex 1.5 0.0 84.5
endloop
endfacet
facet normal 0 1 0
outer loop
vertex -1.5 0.0 86.0
vertex -1.5 0.0 87.5
vertex 1.5 0.0 86.0
endloop
endfacet
facet normal 0 1 0
outer loop
vertex -1.5 0.0 87.5
vertex -1.5 0.0 89.0
vertex 1.5 0.0 87.5
endloop
endfacet
facet normal 0 1 0
outer loop
vertex -1.5 0.0 89.0
vertex -1.5 0.0 90.5
vertex 1.5 0.0 89.0
endloop
endfacet
facet normal 0 1 0
outer loop
vertex -1.5 0.0 90.5
vertex -1.5 0.0 92.0
vertex 1.5 0.0 90.5
endloop
endfacet
facet normal 0 1 0
outer loop
vertex -1.5 0.0 92.0
vertex -1.5 0.0 93.5
vertex 1.5 0.0 92.0
endloop
endfacet
facet normal 0 1 0
outer loop
vertex -1.5 0.0 93.5
vertex -1.5 0.0 95.0
vertex 1.5 0.0 93.5
endloop
endfacet
facet normal 0 1 0
outer loop
vertex -1.5 0.0 95.0
vertex -1.5 0.0 96.5
vertex 1.5 0.0 95.0
endloop
endfacet
facet normal 0 1 0
outer loop
vertex -1.5 0.0 96.5
vertex -1.5 0.0 98.0
vertex 1.5 0.0 96.5
endloop
endfacet
facet normal 0 1 0
outer loop
vertex -1.5 0.0 98.0
vertex -1.5 0.0 99.5
vertex 1.5 0.0 98.0
endloop
endfacet
facet normal 0 1 0
outer loop
vertex -1.5 0.0 99.5
vertex -1.5 0.0 101.0
vertex 1.5 0.0 99.5
endloop
endfacet
facet normal 0 1 0
outer loop
vertex -1.5 0.0 101.0
vertex -1.5 0.0 102.5
vertex 1.5 0.0 101.0
endloop
endfacet
facet normal 0 1 0
outer loop
vertex -1.5 0.0 102.5
vertex -1.5 0.0 104.0
vertex 1.5 0.0 102.5
endloop
endfacet
facet normal 0 1 0
outer loop
vertex -1.5 0.0 104.0
vertex -1.5 0.0 105.5
vertex 1.5 0.0 104.0
endloop
endfacet
facet normal 0 1 0
outer loop
vertex -1.5 0.0 105.5
vertex -1.5 0.0 107.0
vertex 1.5 0.0 105.5
endloop
endfacet
facet normal 0 1 0
outer loop
vertex -1.5 0.0 107.0
vertex -1.5 0.0 108.5
vertex 1.5 0.0 107.0
endloop
endfacet
facet normal 0 1 0
outer loop
vertex -1.5 0.0 108.5
vertex -1.5 0.0 110.0
vertex 1.5 0.0 108.5
endloop
endfacet
facet normal 0 1 0
outer loop
vertex -1.5 0.0 110.0
vertex -1.5 0.0 111.5
vertex 1.5 0.0 110.0
endloop
endfacet
facet normal 0 1 0
outer loop
vertex -1.5 0.0 111.5
vertex -1.5 0.0 113.0
vertex 1.5 0.0 111.5
endloop
endfacet
facet normal 0 1 0
outer loop
vertex -1.5 0.0 113.0
vertex -1.5 0.0 114.5
vertex 1.5 0.0 113.0
endloop
endfacet
facet normal 0 1 0
outer loop
vertex -1.5 0.0 114.5
vertex -1.5 0.0 116.0
vertex 1.5 0.0 114.5
endloop
endfacet
facet normal 0 1 0
outer loop
vertex -1.5 0.0 116.0
vertex -1.5 0.0 117.5
vertex 1.5 0.0 116.0
endloop
endfacet
facet normal 0 1 0
outer loop
vertex -1.5 0.0 117.5
vertex -1.5 0.0 119.0
vertex 1.5 0.0 117.5
endloop
endfacet
facet normal 0 1 0
outer loop
vertex -1.5 0.0 119.0
vertex -1.5 0.0 120.5
vertex 1.5 0.0 119.0
endloop
endfacet
facet normal 0 1 0
outer loop
vertex -1.5 0.0 120.5
vertex -1.5 0.0 122.0
vertex 1.5 0.0 120.5
endloop
endfacet
facet normal 0 1 0
outer loop
vertex -1.5 0.0 122.0
vertex -1.5 0.0 123.5
vertex 1.5 0.0 122.0
endloop
endfacet
facet normal 0 1 0
outer loop
vertex 1.5 0.0 83.0
vertex -1.5 0.0 84.5
vertex 1.5 0.0 84.5
endloop
endfacet
facet normal 0 1 0
outer loop
vertex 1.5 0.0 84.5
vertex -1.5 0.0 86.0
vertex 1.5 0.0 86.0
endloop
endfacet
facet normal 0 1 0
outer loop
vertex 1.5 0.0 86.0
vertex -1.5 0.0 87.5
vertex 1.5 0.0 87.5
endloop
endfacet
facet normal 0 1 0
outer loop
vertex 1.5 0.0 87.5
vertex -1.5 0.0 89.0
vertex 1.5 0.0 89.0
endloop
endfacet
facet normal 0 1 0
outer loop
vertex 1.5 0.0 89.0
vertex -1.5 0.0 90.5
vertex 1.5 0.0 90.5
endloop
endfacet
facet normal 0 1 0
outer loop
vertex 1.5 0.0 90.5
vertex -1.5 0.0 92.0
vertex 1.5 0.0 92.0
endloop
endfacet
facet normal 0 1 0
outer loop
vertex 1.5 0.0 92.0
vertex -1.5 0.0 93.5
vertex 1.5 0.0 93.5
endloop
endfacet
facet normal 0 1 0
outer loop
vertex 1.5 0.0 93.5
vertex -1.5 0.0 95.0
vertex 1.5 0.0 95.0
endloop
endfacet
facet normal 0 1 0
outer loop
vertex 1.5 0.0 95.0
vertex -1.5 0.0 96.5
vertex 1.5 0.0 96.5
endloop
endfacet
facet normal 0 1 0
outer loop
vertex 1.5 0.0 96.5
vertex -1.5 0.0 98.0
vertex 1.5 0.0 98.0
endloop
endfacet
facet normal 0 1 0
outer loop
vertex 1.5 0.0 98.0
vertex -1.5 0.0 99.5
vertex 1.5 0.0 99.5
endloop
endfacet
facet normal 0 1 0
outer loop
vertex 1.5 0.0 99.5
vertex -1.5 0.0 101.0
vertex 1.5 0.0 101.0
endloop
endfacet
facet normal 0 1 0
outer loop
vertex 1.5 0.0 101.0
vertex -1.5 0.0 102.5
vertex 1.5 0.0 102.5
endloop
endfacet
facet normal 0 1 0
outer loop
vertex 1.5 0.0 102.5
vertex -1.5 0.0 104.0
vertex 1.5 0.0 104.0
endloop
endfacet
facet normal 0 1 0
outer loop
vertex 1.5 0.0 104.0
vertex -1.5 0.0 105.5
vertex 1.5 0.0 105.5
endloop
endfacet
facet normal 0 1 0
outer loop
vertex 1.5 0.0 105.5
vertex -1.5 0.0 107.0
vertex 1.5 0.0 107.0
endloop
endfacet
facet normal 0 1 0
outer loop
vertex 1.5 0.0 107.0
vertex -1.5 0.0 108.5
vertex 1.5 0.0 108.5
endloop
endfacet
facet normal 0 1 0
outer loop
vertex 1.5 0.0 108.5
vertex -1.5 0.0 110.0
vertex 1.5 0.0 110.0
endloop
endfacet
facet normal 0 1 0
outer loop
vertex 1.5 0.0 110.0
vertex -1.5 0.0 111.5
vertex 1.5 0.0 111.5
endloop
endfacet
facet normal 0 1 0
outer loop
vertex 1.5 0.0 111.5
vertex -1.5 0.0 113.0
vertex 1.5 0.0 113.0
endloop
endfacet
facet normal 0 1 0
outer loop
vertex 1.5 0.0 113.0
vertex -1.5 0.0 114.5
vertex 1.5 0.0 114.5
endloop
endfacet
facet normal 0 1 0
outer loop
vertex 1.5 0.0 114.5
vertex -1.5 0.0 116.0
vertex 1.5 0.0 116.0
endloop
endfacet
facet normal 0 1 0
outer loop
vertex 1.5 0.0 116.0
vertex -1.5 0.0 117.5
vertex 1.5 0.0 117.5
endloop
endfacet
facet normal 0 1 0
outer loop
vertex 1.5 0.0 117.5
vertex -1.5 0.0 119.0
vertex 1.5 0.0 119.0
endloop
endfacet
facet normal 0 1 0
outer loop
vertex 1.5 0.0 119.0
vertex -1.5 0.0 120.5
vertex 1.5 0.0 120.5
endloop
endfacet
facet normal 0 1 0
outer loop
vertex 1.5 0.0 120.5
vertex -1.5 0.0 122.0
vertex 1.5 0.0 122.0
endloop
endfacet
facet normal 0 1 0
outer loop
vertex 1.5 0.0 122.0
vertex -1.5 0.0 123.5
vertex 1.5 0.0 123.5
endloop
endfacet
endsolid AssimpScene
