solid AssimpScene.
facet normal 0 1 0
outer loop
vertex 1.5 0 83
vertex 2.71353 0 82.1183
vertex 1.5 0 80
endloop
endfacet
facet normal 0 1 0
outer loop
vertex 2.71353 0 82.1183
vertex 3.92705 0 81.2366
vertex 2.71353 0 79.1183
endloop
endfacet
facet normal 0 1 0
outer loop
vertex 1.5 0 80
vertex 2.71353 0 82.1183
vertex 2.71353 0 79.1183
endloop
endfacet
facet normal 0 1 0
outer loop
vertex 2.71353 0 79.1183
vertex 3.92705 0 81.2366
vertex 3.92705 0 78.2366
endloop
endfacet
facet normal 0 1 0
outer loop
vertex -1.5 0 83
vertex -1.5 0 80
vertex -2.71353 0 82.1183
endloop
endfacet
facet normal 0 1 0
outer loop
vertex -2.71353 0 82.1183
vertex -2.71353 0 79.1183
vertex -3.92705 0 81.2366
endloop
endfacet
facet normal 0 1 0
outer loop
vertex -1.5 0 80
vertex -2.71353 0 79.1183
vertex -2.71353 0 82.1183
endloop
endfacet
facet normal 0 1 0
outer loop
vertex -2.71353 0 79.1183
vertex -3.92705 0 78.2366
vertex -3.92705 0 81.2366
endloop
endfacet
facet normal 0 1 0
outer loop
vertex -1.5 0 83
vertex -1.5 0 84.5
vertex 1.5 0 83
endloop
endfacet
facet normal 0 1 0
outer loop
vertex -1.5 0 84.5
vertex -1.5 0 86
vertex 1.5 0 84.5
endloop
endfacet
facet normal 0 1 0
outer loop
vertex 1.5 0 83
vertex -1.5 0 84.5
vertex 1.5 0 84.5
endloop
endfacet
facet normal 0 1 0
outer loop
vertex 1.5 0 84.5
vertex -1.5 0 86
vertex 1.5 0 86
endloop
endfacet
endsolid AssimpScene