solid AssimpScene
facet normal 0 1 0
outer loop
vertex 1.5 0.0 83.0
vertex 2.713525491562421 0.0 82.11832212156129
vertex 1.5 0.0 80.0
endloop
endfacet
facet normal 0 1 0
outer loop
vertex 2.713525491562421 0.0 82.11832212156129
vertex 3.9270509831248424 0.0 81.23664424312258
vertex 2.713525491562421 0.0 79.11832212156129
endloop
endfacet
facet normal 0 1 0
outer loop
vertex 1.5 0.0 80.0
vertex 2.713525491562421 0.0 82.11832212156129
vertex 2.713525491562421 0.0 79.11832212156129
endloop
endfacet
facet normal 0 1 0
outer loop
vertex 2.713525491562421 0.0 79.11832212156129
vertex 3.9270509831248424 0.0 81.23664424312258
vertex 3.9270509831248424 0.0 78.23664424312258
endloop
endfacet
facet normal 0 1 0
outer loop
vertex -1.5 0.0 83.0
vertex -1.5 0.0 80.0
vertex -2.713525491562421 0.0 82.11832212156129
endloop
endfacet
facet normal 0 1 0
outer loop
vertex -2.713525491562421 0.0 82.11832212156129
vertex -2.713525491562421 0.0 79.11832212156129
vertex -3.9270509831248424 0.0 81.23664424312258
endloop
endfacet
facet normal 0 1 0
outer loop
vertex -1.5 0.0 80.0
vertex -2.713525491562421 0.0 79.11832212156129
vertex -2.713525491562421 0.0 82.11832212156129
endloop
endfacet
facet normal 0 1 0
outer loop
vertex -2.713525491562421 0.0 79.11832212156129
vertex -3.9270509831248424 0.0 78.23664424312258
vertex -3.9270509831248424 0.0 81.23664424312258
endloop
endfacet
facet normal 0 1 0
outer loop
vertex -1.5 0.0 83.0
vertex -1.5 0.0 84.5
vertex 1.5 0.0 83.0
endloop
endfacet
facet normal 0 1 0
outer loop
vertex -1.5 0.0 84.5
vertex -1.5 0.0 86.0
vertex 1.5 0.0 84.5
endloop
endfacet
facet normal 0 1 0
outer loop
vertex 1.5 0.0 83.0
vertex -1.5 0.0 84.5
vertex 1.5 0.0 84.5
endloop
endfacet
facet normal 0 1 0
outer loop
vertex 1.5 0.0 84.5
vertex -1.5 0.0 86.0
vertex 1.5 0.0 86.0
endloop
endfacet
endsolid AssimpScene
