solid AssimpScene
facet normal 0 1 0
outer loop
vertex 2.5 0.0 2.5
vertex 3.713525491562421 0.0 1.6183221215612904
vertex 2.5 0.0 -2.5
endloop
endfacet
facet normal 0 1 0
outer loop
vertex 3.713525491562421 0.0 1.6183221215612904
vertex 4.927050983124842 0.0 0.7366442431225807
vertex 3.713525491562421 0.0 -3.3816778784387096
endloop
endfacet
facet normal 0 1 0
outer loop
vertex 4.927050983124842 0.0 0.7366442431225807
vertex 6.140576474687263 0.0 -0.145033635316129
vertex 4.927050983124842 0.0 -4.263355756877419
endloop
endfacet
facet normal 0 1 0
outer loop
vertex 6.140576474687263 0.0 -0.145033635316129
vertex 7.354101966249685 0.0 -1.0267115137548388
vertex 6.140576474687263 0.0 -5.145033635316129
endloop
endfacet
facet normal 0 1 0
outer loop
vertex 7.354101966249685 0.0 -1.0267115137548388
vertex 8.567627457812106 0.0 -1.9083893921935484
vertex 7.354101966249685 0.0 -6.026711513754839
endloop
endfacet
facet normal 0 1 0
outer loop
vertex 8.567627457812106 0.0 -1.9083893921935484
vertex 9.781152949374528 0.0 -2.790067270632258
vertex 8.567627457812106 0.0 -6.908389392193549
endloop
endfacet
facet normal 0 1 0
outer loop
vertex 9.781152949374528 0.0 -2.790067270632258
vertex 10.99467844093695 0.0 -3.6717451490709676
vertex 9.781152949374528 0.0 -7.790067270632259
endloop
endfacet
facet normal 0 1 0
outer loop
vertex 10.99467844093695 0.0 -3.6717451490709676
vertex 12.208203932499371 0.0 -4.553423027509678
vertex 10.99467844093695 0.0 -8.671745149070968
endloop
endfacet
facet normal 0 1 0
outer loop
vertex 12.208203932499371 0.0 -4.553423027509678
vertex 13.421729424061793 0.0 -5.435100905948388
vertex 12.208203932499371 0.0 -9.553423027509679
endloop
endfacet
facet normal 0 1 0
outer loop
vertex 13.421729424061793 0.0 -5.435100905948388
vertex 14.635254915624214 0.0 -6.316778784387098
vertex 13.421729424061793 0.0 -10.435100905948389
endloop
endfacet
facet normal 0 1 0
outer loop
vertex 14.635254915624214 0.0 -6.316778784387098
vertex 15.848780407186636 0.0 -7.198456662825808
vertex 14.635254915624214 0.0 -11.316778784387099
endloop
endfacet
facet normal 0 1 0
outer loop
vertex 15.848780407186636 0.0 -7.198456662825808
vertex 17.062305898749056 0.0 -8.080134541264517
vertex 15.848780407186636 0.0 -12.198456662825809
endloop
endfacet
facet normal 0 1 0
outer loop
vertex 17.062305898749056 0.0 -8.080134541264517
vertex 18.275831390311478 0.0 -8.961812419703227
vertex 17.062305898749056 0.0 -13.080134541264519
endloop
endfacet
facet normal 0 1 0
outer loop
vertex 18.275831390311478 0.0 -8.961812419703227
vertex 19.4893568818739 0.0 -9.843490298141937
vertex 18.275831390311478 0.0 -13.961812419703229
endloop
endfacet
facet normal 0 1 0
outer loop
vertex 19.4893568818739 0.0 -9.843490298141937
vertex 20.70288237343632 0.0 -10.725168176580647
vertex 19.4893568818739 0.0 -14.843490298141939
endloop
endfacet
facet normal 0 1 0
outer loop
vertex 20.70288237343632 0.0 -10.725168176580647
vertex 21.916407864998742 0.0 -11.606846055019357
vertex 20.70288237343632 0.0 -15.725168176580649
endloop
endfacet
facet normal 0 1 0
outer loop
vertex 21.916407864998742 0.0 -11.606846055019357
vertex 23.129933356561164 0.0 -12.488523933458067
vertex 21.916407864998742 0.0 -16.606846055019357
endloop
endfacet
facet normal 0 1 0
outer loop
vertex 23.129933356561164 0.0 -12.488523933458067
vertex 24.343458848123586 0.0 -13.370201811896777
vertex 23.129933356561164 0.0 -17.488523933458065
endloop
endfacet
facet normal 0 1 0
outer loop
vertex 24.343458848123586 0.0 -13.370201811896777
vertex 25.556984339686007 0.0 -14.251879690335487
vertex 24.343458848123586 0.0 -18.370201811896774
endloop
endfacet
facet normal 0 1 0
outer loop
vertex 25.556984339686007 0.0 -14.251879690335487
vertex 26.77050983124843 0.0 -15.133557568774197
vertex 25.556984339686007 0.0 -19.251879690335482
endloop
endfacet
facet normal 0 1 0
outer loop
vertex 26.77050983124843 0.0 -15.133557568774197
vertex 27.98403532281085 0.0 -16.015235447212905
vertex 26.77050983124843 0.0 -20.13355756877419
endloop
endfacet
facet normal 0 1 0
outer loop
vertex 27.98403532281085 0.0 -16.015235447212905
vertex 29.197560814373272 0.0 -16.896913325651614
vertex 27.98403532281085 0.0 -21.0152354472129
endloop
endfacet
facet normal 0 1 0
outer loop
vertex 29.197560814373272 0.0 -16.896913325651614
vertex 30.411086305935694 0.0 -17.778591204090322
vertex 29.197560814373272 0.0 -21.896913325651607
endloop
endfacet
facet normal 0 1 0
outer loop
vertex 30.411086305935694 0.0 -17.778591204090322
vertex 31.624611797498115 0.0 -18.66026908252903
vertex 30.411086305935694 0.0 -22.778591204090315
endloop
endfacet
facet normal 0 1 0
outer loop
vertex 31.624611797498115 0.0 -18.66026908252903
vertex 32.83813728906053 0.0 -19.54194696096774
vertex 31.624611797498115 0.0 -23.660269082529023
endloop
endfacet
facet normal 0 1 0
outer loop
vertex 32.83813728906053 0.0 -19.54194696096774
vertex 34.051662780622955 0.0 -20.423624839406447
vertex 32.83813728906053 0.0 -24.54194696096773
endloop
endfacet
facet normal 0 1 0
outer loop
vertex 2.5 0.0 -2.5
vertex 3.713525491562421 0.0 1.6183221215612904
vertex 3.713525491562421 0.0 -3.3816778784387096
endloop
endfacet
facet normal 0 1 0
outer loop
vertex 3.713525491562421 0.0 -3.3816778784387096
vertex 4.927050983124842 0.0 0.7366442431225807
vertex 4.927050983124842 0.0 -4.263355756877419
endloop
endfacet
facet normal 0 1 0
outer loop
vertex 4.927050983124842 0.0 -4.263355756877419
vertex 6.140576474687263 0.0 -0.145033635316129
vertex 6.140576474687263 0.0 -5.145033635316129
endloop
endfacet
facet normal 0 1 0
outer loop
vertex 6.140576474687263 0.0 -5.145033635316129
vertex 7.354101966249685 0.0 -1.0267115137548388
vertex 7.354101966249685 0.0 -6.026711513754839
endloop
endfacet
facet normal 0 1 0
outer loop
vertex 7.354101966249685 0.0 -6.026711513754839
vertex 8.567627457812106 0.0 -1.9083893921935484
vertex 8.567627457812106 0.0 -6.908389392193549
endloop
endfacet
facet normal 0 1 0
outer loop
vertex 8.567627457812106 0.0 -6.908389392193549
vertex 9.781152949374528 0.0 -2.790067270632258
vertex 9.781152949374528 0.0 -7.790067270632259
endloop
endfacet
facet normal 0 1 0
outer loop
vertex 9.781152949374528 0.0 -7.790067270632259
vertex 10.99467844093695 0.0 -3.6717451490709676
vertex 10.99467844093695 0.0 -8.671745149070968
endloop
endfacet
facet normal 0 1 0
outer loop
vertex 10.99467844093695 0.0 -8.671745149070968
vertex 12.208203932499371 0.0 -4.553423027509678
vertex 12.208203932499371 0.0 -9.553423027509679
endloop
endfacet
facet normal 0 1 0
outer loop
vertex 12.208203932499371 0.0 -9.553423027509679
vertex 13.421729424061793 0.0 -5.435100905948388
vertex 13.421729424061793 0.0 -10.435100905948389
endloop
endfacet
facet normal 0 1 0
outer loop
vertex 13.421729424061793 0.0 -10.435100905948389
vertex 14.635254915624214 0.0 -6.316778784387098
vertex 14.635254915624214 0.0 -11.316778784387099
endloop
endfacet
facet normal 0 1 0
outer loop
vertex 14.635254915624214 0.0 -11.316778784387099
vertex 15.848780407186636 0.0 -7.198456662825808
vertex 15.848780407186636 0.0 -12.198456662825809
endloop
endfacet
facet normal 0 1 0
outer loop
vertex 15.848780407186636 0.0 -12.198456662825809
vertex 17.062305898749056 0.0 -8.080134541264517
vertex 17.062305898749056 0.0 -13.080134541264519
endloop
endfacet
facet normal 0 1 0
outer loop
vertex 17.062305898749056 0.0 -13.080134541264519
vertex 18.275831390311478 0.0 -8.961812419703227
vertex 18.275831390311478 0.0 -13.961812419703229
endloop
endfacet
facet normal 0 1 0
outer loop
vertex 18.275831390311478 0.0 -13.961812419703229
vertex 19.4893568818739 0.0 -9.843490298141937
vertex 19.4893568818739 0.0 -14.843490298141939
endloop
endfacet
facet normal 0 1 0
outer loop
vertex 19.4893568818739 0.0 -14.843490298141939
vertex 20.70288237343632 0.0 -10.725168176580647
vertex 20.70288237343632 0.0 -15.725168176580649
endloop
endfacet
facet normal 0 1 0
outer loop
vertex 20.70288237343632 0.0 -15.725168176580649
vertex 21.916407864998742 0.0 -11.606846055019357
vertex 21.916407864998742 0.0 -16.606846055019357
endloop
endfacet
facet normal 0 1 0
outer loop
vertex 21.916407864998742 0.0 -16.606846055019357
vertex 23.129933356561164 0.0 -12.488523933458067
vertex 23.129933356561164 0.0 -17.488523933458065
endloop
endfacet
facet normal 0 1 0
outer loop
vertex 23.129933356561164 0.0 -17.488523933458065
vertex 24.343458848123586 0.0 -13.370201811896777
vertex 24.343458848123586 0.0 -18.370201811896774
endloop
endfacet
facet normal 0 1 0
outer loop
vertex 24.343458848123586 0.0 -18.370201811896774
vertex 25.556984339686007 0.0 -14.251879690335487
vertex 25.556984339686007 0.0 -19.251879690335482
endloop
endfacet
facet normal 0 1 0
outer loop
vertex 25.556984339686007 0.0 -19.251879690335482
vertex 26.77050983124843 0.0 -15.133557568774197
vertex 26.77050983124843 0.0 -20.13355756877419
endloop
endfacet
facet normal 0 1 0
outer loop
vertex 26.77050983124843 0.0 -20.13355756877419
vertex 27.98403532281085 0.0 -16.015235447212905
vertex 27.98403532281085 0.0 -21.0152354472129
endloop
endfacet
facet normal 0 1 0
outer loop
vertex 27.98403532281085 0.0 -21.0152354472129
vertex 29.197560814373272 0.0 -16.896913325651614
vertex 29.197560814373272 0.0 -21.896913325651607
endloop
endfacet
facet normal 0 1 0
outer loop
vertex 29.197560814373272 0.0 -21.896913325651607
vertex 30.411086305935694 0.0 -17.778591204090322
vertex 30.411086305935694 0.0 -22.778591204090315
endloop
endfacet
facet normal 0 1 0
outer loop
vertex 30.411086305935694 0.0 -22.778591204090315
vertex 31.624611797498115 0.0 -18.66026908252903
vertex 31.624611797498115 0.0 -23.660269082529023
endloop
endfacet
facet normal 0 1 0
outer loop
vertex 31.624611797498115 0.0 -23.660269082529023
vertex 32.83813728906053 0.0 -19.54194696096774
vertex 32.83813728906053 0.0 -24.54194696096773
endloop
endfacet
facet normal 0 1 0
outer loop
vertex 32.83813728906053 0.0 -24.54194696096773
vertex 34.051662780622955 0.0 -20.423624839406447
vertex 34.051662780622955 0.0 -25.42362483940644
endloop
endfacet
facet normal 0 1 0
outer loop
vertex -2.5 0.0 2.5
vertex -2.5 0.0 -2.5
vertex -3.713525491562421 0.0 1.6183221215612904
endloop
endfacet
facet normal 0 1 0
outer loop
vertex -3.713525491562421 0.0 1.6183221215612904
vertex -3.713525491562421 0.0 -3.3816778784387096
vertex -4.927050983124842 0.0 0.7366442431225807
endloop
endfacet
facet normal 0 1 0
outer loop
vertex -4.927050983124842 0.0 0.7366442431225807
vertex -4.927050983124842 0.0 -4.263355756877419
vertex -6.140576474687263 0.0 -0.145033635316129
endloop
endfacet
facet normal 0 1 0
outer loop
vertex -6.140576474687263 0.0 -0.145033635316129
vertex -6.140576474687263 0.0 -5.145033635316129
vertex -7.354101966249685 0.0 -1.0267115137548388
endloop
endfacet
facet normal 0 1 0
outer loop
vertex -7.354101966249685 0.0 -1.0267115137548388
vertex -7.354101966249685 0.0 -6.026711513754839
vertex -8.567627457812106 0.0 -1.9083893921935484
endloop
endfacet
facet normal 0 1 0
outer loop
vertex -8.567627457812106 0.0 -1.9083893921935484
vertex -8.567627457812106 0.0 -6.908389392193549
vertex -9.781152949374528 0.0 -2.790067270632258
endloop
endfacet
facet normal 0 1 0
outer loop
vertex -9.781152949374528 0.0 -2.790067270632258
vertex -9.781152949374528 0.0 -7.790067270632259
vertex -10.99467844093695 0.0 -3.6717451490709676
endloop
endfacet
facet normal 0 1 0
outer loop
vertex -10.99467844093695 0.0 -3.6717451490709676
vertex -10.99467844093695 0.0 -8.671745149070968
vertex -12.208203932499371 0.0 -4.553423027509678
endloop
endfacet
facet normal 0 1 0
outer loop
vertex -12.208203932499371 0.0 -4.553423027509678
vertex -12.208203932499371 0.0 -9.553423027509679
vertex -13.421729424061793 0.0 -5.435100905948388
endloop
endfacet
facet normal 0 1 0
outer loop
vertex -13.421729424061793 0.0 -5.435100905948388
vertex -13.421729424061793 0.0 -10.435100905948389
vertex -14.635254915624214 0.0 -6.316778784387098
endloop
endfacet
facet normal 0 1 0
outer loop
vertex -14.635254915624214 0.0 -6.316778784387098
vertex -14.635254915624214 0.0 -11.316778784387099
vertex -15.848780407186636 0.0 -7.198456662825808
endloop
endfacet
facet normal 0 1 0
outer loop
vertex -15.848780407186636 0.0 -7.198456662825808
vertex -15.848780407186636 0.0 -12.198456662825809
vertex -17.062305898749056 0.0 -8.080134541264517
endloop
endfacet
facet normal 0 1 0
outer loop
vertex -17.062305898749056 0.0 -8.080134541264517
vertex -17.062305898749056 0.0 -13.080134541264519
vertex -18.275831390311478 0.0 -8.961812419703227
endloop
endfacet
facet normal 0 1 0
outer loop
vertex -18.275831390311478 0.0 -8.961812419703227
vertex -18.275831390311478 0.0 -13.961812419703229
vertex -19.4893568818739 0.0 -9.843490298141937
endloop
endfacet
facet normal 0 1 0
outer loop
vertex -19.4893568818739 0.0 -9.843490298141937
vertex -19.4893568818739 0.0 -14.843490298141939
vertex -20.70288237343632 0.0 -10.725168176580647
endloop
endfacet
facet normal 0 1 0
outer loop
vertex -20.70288237343632 0.0 -10.725168176580647
vertex -20.70288237343632 0.0 -15.725168176580649
vertex -21.916407864998742 0.0 -11.606846055019357
endloop
endfacet
facet normal 0 1 0
outer loop
vertex -21.916407864998742 0.0 -11.606846055019357
vertex -21.916407864998742 0.0 -16.606846055019357
vertex -23.129933356561164 0.0 -12.488523933458067
endloop
endfacet
facet normal 0 1 0
outer loop
vertex -23.129933356561164 0.0 -12.488523933458067
vertex -23.129933356561164 0.0 -17.488523933458065
vertex -24.343458848123586 0.0 -13.370201811896777
endloop
endfacet
facet normal 0 1 0
outer loop
vertex -24.343458848123586 0.0 -13.370201811896777
vertex -24.343458848123586 0.0 -18.370201811896774
vertex -25.556984339686007 0.0 -14.251879690335487
endloop
endfacet
facet normal 0 1 0
outer loop
vertex -25.556984339686007 0.0 -14.251879690335487
vertex -25.556984339686007 0.0 -19.251879690335482
vertex -26.77050983124843 0.0 -15.133557568774197
endloop
endfacet
facet normal 0 1 0
outer loop
vertex -26.77050983124843 0.0 -15.133557568774197
vertex -26.77050983124843 0.0 -20.13355756877419
vertex -27.98403532281085 0.0 -16.015235447212905
endloop
endfacet
facet normal 0 1 0
outer loop
vertex -27.98403532281085 0.0 -16.015235447212905
vertex -27.98403532281085 0.0 -21.0152354472129
vertex -29.197560814373272 0.0 -16.896913325651614
endloop
endfacet
facet normal 0 1 0
outer loop
vertex -29.197560814373272 0.0 -16.896913325651614
vertex -29.197560814373272 0.0 -21.896913325651607
vertex -30.411086305935694 0.0 -17.778591204090322
endloop
endfacet
facet normal 0 1 0
outer loop
vertex -30.411086305935694 0.0 -17.778591204090322
vertex -30.411086305935694 0.0 -22.778591204090315
vertex -31.624611797498115 0.0 -18.66026908252903
endloop
endfacet
facet normal 0 1 0
outer loop
vertex -31.624611797498115 0.0 -18.66026908252903
vertex -31.624611797498115 0.0 -23.660269082529023
vertex -32.83813728906053 0.0 -19.54194696096774
endloop
endfacet
facet normal 0 1 0
outer loop
vertex -32.83813728906053 0.0 -19.54194696096774
vertex -32.83813728906053 0.0 -24.54194696096773
vertex -34.051662780622955 0.0 -20.423624839406447
endloop
endfacet
facet normal 0 1 0
outer loop
vertex -2.5 0.0 -2.5
vertex -3.713525491562421 0.0 -3.3816778784387096
vertex -3.713525491562421 0.0 1.6183221215612904
endloop
endfacet
facet normal 0 1 0
outer loop
vertex -3.713525491562421 0.0 -3.3816778784387096
vertex -4.927050983124842 0.0 -4.263355756877419
vertex -4.927050983124842 0.0 0.7366442431225807
endloop
endfacet
facet normal 0 1 0
outer loop
vertex -4.927050983124842 0.0 -4.263355756877419
vertex -6.140576474687263 0.0 -5.145033635316129
vertex -6.140576474687263 0.0 -0.145033635316129
endloop
endfacet
facet normal 0 1 0
outer loop
vertex -6.140576474687263 0.0 -5.145033635316129
vertex -7.354101966249685 0.0 -6.026711513754839
vertex -7.354101966249685 0.0 -1.0267115137548388
endloop
endfacet
facet normal 0 1 0
outer loop
vertex -7.354101966249685 0.0 -6.026711513754839
vertex -8.567627457812106 0.0 -6.908389392193549
vertex -8.567627457812106 0.0 -1.9083893921935484
endloop
endfacet
facet normal 0 1 0
outer loop
vertex -8.567627457812106 0.0 -6.908389392193549
vertex -9.781152949374528 0.0 -7.790067270632259
vertex -9.781152949374528 0.0 -2.790067270632258
endloop
endfacet
facet normal 0 1 0
outer loop
vertex -9.781152949374528 0.0 -7.790067270632259
vertex -10.99467844093695 0.0 -8.671745149070968
vertex -10.99467844093695 0.0 -3.6717451490709676
endloop
endfacet
facet normal 0 1 0
outer loop
vertex -10.99467844093695 0.0 -8.671745149070968
vertex -12.208203932499371 0.0 -9.553423027509679
vertex -12.208203932499371 0.0 -4.553423027509678
endloop
endfacet
facet normal 0 1 0
outer loop
vertex -12.208203932499371 0.0 -9.553423027509679
vertex -13.421729424061793 0.0 -10.435100905948389
vertex -13.421729424061793 0.0 -5.435100905948388
endloop
endfacet
facet normal 0 1 0
outer loop
vertex -13.421729424061793 0.0 -10.435100905948389
vertex -14.635254915624214 0.0 -11.316778784387099
vertex -14.635254915624214 0.0 -6.316778784387098
endloop
endfacet
facet normal 0 1 0
outer loop
vertex -14.635254915624214 0.0 -11.316778784387099
vertex -15.848780407186636 0.0 -12.198456662825809
vertex -15.848780407186636 0.0 -7.198456662825808
endloop
endfacet
facet normal 0 1 0
outer loop
vertex -15.848780407186636 0.0 -12.198456662825809
vertex -17.062305898749056 0.0 -13.080134541264519
vertex -17.062305898749056 0.0 -8.080134541264517
endloop
endfacet
facet normal 0 1 0
outer loop
vertex -17.062305898749056 0.0 -13.080134541264519
vertex -18.275831390311478 0.0 -13.961812419703229
vertex -18.275831390311478 0.0 -8.961812419703227
endloop
endfacet
facet normal 0 1 0
outer loop
vertex -18.275831390311478 0.0 -13.961812419703229
vertex -19.4893568818739 0.0 -14.843490298141939
vertex -19.4893568818739 0.0 -9.843490298141937
endloop
endfacet
facet normal 0 1 0
outer loop
vertex -19.4893568818739 0.0 -14.843490298141939
vertex -20.70288237343632 0.0 -15.725168176580649
vertex -20.70288237343632 0.0 -10.725168176580647
endloop
endfacet
facet normal 0 1 0
outer loop
vertex -20.70288237343632 0.0 -15.725168176580649
vertex -21.916407864998742 0.0 -16.606846055019357
vertex -21.916407864998742 0.0 -11.606846055019357
endloop
endfacet
facet normal 0 1 0
outer loop
vertex -21.916407864998742 0.0 -16.606846055019357
vertex -23.129933356561164 0.0 -17.488523933458065
vertex -23.129933356561164 0.0 -12.488523933458067
endloop
endfacet
facet normal 0 1 0
outer loop
vertex -23.129933356561164 0.0 -17.488523933458065
vertex -24.343458848123586 0.0 -18.370201811896774
vertex -24.343458848123586 0.0 -13.370201811896777
endloop
endfacet
facet normal 0 1 0
outer loop
vertex -24.343458848123586 0.0 -18.370201811896774
vertex -25.556984339686007 0.0 -19.251879690335482
vertex -25.556984339686007 0.0 -14.251879690335487
endloop
endfacet
facet normal 0 1 0
outer loop
vertex -25.556984339686007 0.0 -19.251879690335482
vertex -26.77050983124843 0.0 -20.13355756877419
vertex -26.77050983124843 0.0 -15.133557568774197
endloop
endfacet
facet normal 0 1 0
outer loop
vertex -26.77050983124843 0.0 -20.13355756877419
vertex -27.98403532281085 0.0 -21.0152354472129
vertex -27.98403532281085 0.0 -16.015235447212905
endloop
endfacet
facet normal 0 1 0
outer loop
vertex -27.98403532281085 0.0 -21.0152354472129
vertex -29.197560814373272 0.0 -21.896913325651607
vertex -29.197560814373272 0.0 -16.896913325651614
endloop
endfacet
facet normal 0 1 0
outer loop
vertex -29.197560814373272 0.0 -21.896913325651607
vertex -30.411086305935694 0.0 -22.778591204090315
vertex -30.411086305935694 0.0 -17.778591204090322
endloop
endfacet
facet normal 0 1 0
outer loop
vertex -30.411086305935694 0.0 -22.778591204090315
vertex -31.624611797498115 0.0 -23.660269082529023
vertex -31.624611797498115 0.0 -18.66026908252903
endloop
endfacet
facet normal 0 1 0
outer loop
vertex -31.624611797498115 0.0 -23.660269082529023
vertex -32.83813728906053 0.0 -24.54194696096773
vertex -32.83813728906053 0.0 -19.54194696096774
endloop
endfacet
facet normal 0 1 0
outer loop
vertex -32.83813728906053 0.0 -24.54194696096773
vertex -34.051662780622955 0.0 -25.42362483940644
vertex -34.051662780622955 0.0 -20.423624839406447
endloop
endfacet
facet normal 0 1 0
outer loop
vertex -2.5 0.0 2.5
vertex -2.5 0.0 4.0
vertex 2.5 0.0 2.5
endloop
endfacet
facet normal 0 1 0
outer loop
vertex -2.5 0.0 4.0
vertex -2.5 0.0 5.5
vertex 2.5 0.0 4.0
endloop
endfacet
facet normal 0 1 0
outer loop
vertex -2.5 0.0 5.5
vertex -2.5 0.0 7.0
vertex 2.5 0.0 5.5
endloop
endfacet
facet normal 0 1 0
outer loop
vertex -2.5 0.0 7.0
vertex -2.5 0.0 8.5
vertex 2.5 0.0 7.0
endloop
endfacet
facet normal 0 1 0
outer loop
vertex -2.5 0.0 8.5
vertex -2.5 0.0 10.0
vertex 2.5 0.0 8.5
endloop
endfacet
facet normal 0 1 0
outer loop
vertex -2.5 0.0 10.0
vertex -2.5 0.0 11.5
vertex 2.5 0.0 10.0
endloop
endfacet
facet normal 0 1 0
outer loop
vertex -2.5 0.0 11.5
vertex -2.5 0.0 13.0
vertex 2.5 0.0 11.5
endloop
endfacet
facet normal 0 1 0
outer loop
vertex -2.5 0.0 13.0
vertex -2.5 0.0 14.5
vertex 2.5 0.0 13.0
endloop
endfacet
facet normal 0 1 0
outer loop
vertex -2.5 0.0 14.5
vertex -2.5 0.0 16.0
vertex 2.5 0.0 14.5
endloop
endfacet
facet normal 0 1 0
outer loop
vertex -2.5 0.0 16.0
vertex -2.5 0.0 17.5
vertex 2.5 0.0 16.0
endloop
endfacet
facet normal 0 1 0
outer loop
vertex -2.5 0.0 17.5
vertex -2.5 0.0 19.0
vertex 2.5 0.0 17.5
endloop
endfacet
facet normal 0 1 0
outer loop
vertex -2.5 0.0 19.0
vertex -2.5 0.0 20.5
vertex 2.5 0.0 19.0
endloop
endfacet
facet normal 0 1 0
outer loop
vertex -2.5 0.0 20.5
vertex -2.5 0.0 22.0
vertex 2.5 0.0 20.5
endloop
endfacet
facet normal 0 1 0
outer loop
vertex -2.5 0.0 22.0
vertex -2.5 0.0 23.5
vertex 2.5 0.0 22.0
endloop
endfacet
facet normal 0 1 0
outer loop
vertex -2.5 0.0 23.5
vertex -2.5 0.0 25.0
vertex 2.5 0.0 23.5
endloop
endfacet
facet normal 0 1 0
outer loop
vertex -2.5 0.0 25.0
vertex -2.5 0.0 26.5
vertex 2.5 0.0 25.0
endloop
endfacet
facet normal 0 1 0
outer loop
vertex -2.5 0.0 26.5
vertex -2.5 0.0 28.0
vertex 2.5 0.0 26.5
endloop
endfacet
facet normal 0 1 0
outer loop
vertex -2.5 0.0 28.0
vertex -2.5 0.0 29.5
vertex 2.5 0.0 28.0
endloop
endfacet
facet normal 0 1 0
outer loop
vertex -2.5 0.0 29.5
vertex -2.5 0.0 31.0
vertex 2.5 0.0 29.5
endloop
endfacet
facet normal 0 1 0
outer loop
vertex -2.5 0.0 31.0
vertex -2.5 0.0 32.5
vertex 2.5 0.0 31.0
endloop
endfacet
facet normal 0 1 0
outer loop
vertex -2.5 0.0 32.5
vertex -2.5 0.0 34.0
vertex 2.5 0.0 32.5
endloop
endfacet
facet normal 0 1 0
outer loop
vertex -2.5 0.0 34.0
vertex -2.5 0.0 35.5
vertex 2.5 0.0 34.0
endloop
endfacet
facet normal 0 1 0
outer loop
vertex -2.5 0.0 35.5
vertex -2.5 0.0 37.0
vertex 2.5 0.0 35.5
endloop
endfacet
facet normal 0 1 0
outer loop
vertex -2.5 0.0 37.0
vertex -2.5 0.0 38.5
vertex 2.5 0.0 37.0
endloop
endfacet
facet normal 0 1 0
outer loop
vertex -2.5 0.0 38.5
vertex -2.5 0.0 40.0
vertex 2.5 0.0 38.5
endloop
endfacet
facet normal 0 1 0
outer loop
vertex -2.5 0.0 40.0
vertex -2.5 0.0 41.5
vertex 2.5 0.0 40.0
endloop
endfacet
facet normal 0 1 0
outer loop
vertex 2.5 0.0 2.5
vertex -2.5 0.0 4.0
vertex 2.5 0.0 4.0
endloop
endfacet
facet normal 0 1 0
outer loop
vertex 2.5 0.0 4.0
vertex -2.5 0.0 5.5
vertex 2.5 0.0 5.5
endloop
endfacet
facet normal 0 1 0
outer loop
vertex 2.5 0.0 5.5
vertex -2.5 0.0 7.0
vertex 2.5 0.0 7.0
endloop
endfacet
facet normal 0 1 0
outer loop
vertex 2.5 0.0 7.0
vertex -2.5 0.0 8.5
vertex 2.5 0.0 8.5
endloop
endfacet
facet normal 0 1 0
outer loop
vertex 2.5 0.0 8.5
vertex -2.5 0.0 10.0
vertex 2.5 0.0 10.0
endloop
endfacet
facet normal 0 1 0
outer loop
vertex 2.5 0.0 10.0
vertex -2.5 0.0 11.5
vertex 2.5 0.0 11.5
endloop
endfacet
facet normal 0 1 0
outer loop
vertex 2.5 0.0 11.5
vertex -2.5 0.0 13.0
vertex 2.5 0.0 13.0
endloop
endfacet
facet normal 0 1 0
outer loop
vertex 2.5 0.0 13.0
vertex -2.5 0.0 14.5
vertex 2.5 0.0 14.5
endloop
endfacet
facet normal 0 1 0
outer loop
vertex 2.5 0.0 14.5
vertex -2.5 0.0 16.0
vertex 2.5 0.0 16.0
endloop
endfacet
facet normal 0 1 0
outer loop
vertex 2.5 0.0 16.0
vertex -2.5 0.0 17.5
vertex 2.5 0.0 17.5
endloop
endfacet
facet normal 0 1 0
outer loop
vertex 2.5 0.0 17.5
vertex -2.5 0.0 19.0
vertex 2.5 0.0 19.0
endloop
endfacet
facet normal 0 1 0
outer loop
vertex 2.5 0.0 19.0
vertex -2.5 0.0 20.5
vertex 2.5 0.0 20.5
endloop
endfacet
facet normal 0 1 0
outer loop
vertex 2.5 0.0 20.5
vertex -2.5 0.0 22.0
vertex 2.5 0.0 22.0
endloop
endfacet
facet normal 0 1 0
outer loop
vertex 2.5 0.0 22.0
vertex -2.5 0.0 23.5
vertex 2.5 0.0 23.5
endloop
endfacet
facet normal 0 1 0
outer loop
vertex 2.5 0.0 23.5
vertex -2.5 0.0 25.0
vertex 2.5 0.0 25.0
endloop
endfacet
facet normal 0 1 0
outer loop
vertex 2.5 0.0 25.0
vertex -2.5 0.0 26.5
vertex 2.5 0.0 26.5
endloop
endfacet
facet normal 0 1 0
outer loop
vertex 2.5 0.0 26.5
vertex -2.5 0.0 28.0
vertex 2.5 0.0 28.0
endloop
endfacet
facet normal 0 1 0
outer loop
vertex 2.5 0.0 28.0
vertex -2.5 0.0 29.5
vertex 2.5 0.0 29.5
endloop
endfacet
facet normal 0 1 0
outer loop
vertex 2.5 0.0 29.5
vertex -2.5 0.0 31.0
vertex 2.5 0.0 31.0
endloop
endfacet
facet normal 0 1 0
outer loop
vertex 2.5 0.0 31.0
vertex -2.5 0.0 32.5
vertex 2.5 0.0 32.5
endloop
endfacet
facet normal 0 1 0
outer loop
vertex 2.5 0.0 32.5
vertex -2.5 0.0 34.0
vertex 2.5 0.0 34.0
endloop
endfacet
facet normal 0 1 0
outer loop
vertex 2.5 0.0 34.0
vertex -2.5 0.0 35.5
vertex 2.5 0.0 35.5
endloop
endfacet
facet normal 0 1 0
outer loop
vertex 2.5 0.0 35.5
vertex -2.5 0.0 37.0
vertex 2.5 0.0 37.0
endloop
endfacet
facet normal 0 1 0
outer loop
vertex 2.5 0.0 37.0
vertex -2.5 0.0 38.5
vertex 2.5 0.0 38.5
endloop
endfacet
facet normal 0 1 0
outer loop
vertex 2.5 0.0 38.5
vertex -2.5 0.0 40.0
vertex 2.5 0.0 40.0
endloop
endfacet
facet normal 0 1 0
outer loop
vertex 2.5 0.0 40.0
vertex -2.5 0.0 41.5
vertex 2.5 0.0 41.5
endloop
endfacet
endsolid AssimpScene
