solid AssimpScene
facet normal 0 1 0
outer loop
vertex 2.5 0.0 2.5
vertex 3.713525491562421 0.0 1.6183221215612904
vertex 2.5 0.0 -2.5
endloop
endfacet
facet normal 0 1 0
outer loop
vertex 3.713525491562421 0.0 1.6183221215612904
vertex 4.927050983124842 0.0 0.7366442431225807
vertex 3.713525491562421 0.0 -3.3816778784387096
endloop
endfacet
facet normal 0 1 0
outer loop
vertex 4.927050983124842 0.0 0.7366442431225807
vertex 6.140576474687263 0.0 -0.145033635316129
vertex 4.927050983124842 0.0 -4.263355756877419
endloop
endfacet
facet normal 0 1 0
outer loop
vertex 6.140576474687263 0.0 -0.145033635316129
vertex 7.354101966249685 0.0 -1.0267115137548388
vertex 6.140576474687263 0.0 -5.145033635316129
endloop
endfacet
facet normal 0 1 0
outer loop
vertex 7.354101966249685 0.0 -1.0267115137548388
vertex 8.567627457812106 0.0 -1.9083893921935484
vertex 7.354101966249685 0.0 -6.026711513754839
endloop
endfacet
facet normal 0 1 0
outer loop
vertex 8.567627457812106 0.0 -1.9083893921935484
vertex 9.781152949374528 0.0 -2.790067270632258
vertex 8.567627457812106 0.0 -6.908389392193549
endloop
endfacet
facet normal 0 1 0
outer loop
vertex 9.781152949374528 0.0 -2.790067270632258
vertex 10.99467844093695 0.0 -3.6717451490709676
vertex 9.781152949374528 0.0 -7.790067270632259
endloop
endfacet
facet normal 0 1 0
outer loop
vertex 10.99467844093695 0.0 -3.6717451490709676
vertex 12.208203932499371 0.0 -4.553423027509678
vertex 10.99467844093695 0.0 -8.671745149070968
endloop
endfacet
facet normal 0 1 0
outer loop
vertex 12.208203932499371 0.0 -4.553423027509678
vertex 13.421729424061793 0.0 -5.435100905948388
vertex 12.208203932499371 0.0 -9.553423027509679
endloop
endfacet
facet normal 0 1 0
outer loop
vertex 13.421729424061793 0.0 -5.435100905948388
vertex 14.635254915624214 0.0 -6.316778784387098
vertex 13.421729424061793 0.0 -10.435100905948389
endloop
endfacet
facet normal 0 1 0
outer loop
vertex 2.5 0.0 -2.5
vertex 3.713525491562421 0.0 1.6183221215612904
vertex 3.713525491562421 0.0 -3.3816778784387096
endloop
endfacet
facet normal 0 1 0
outer loop
vertex 3.713525491562421 0.0 -3.3816778784387096
vertex 4.927050983124842 0.0 0.7366442431225807
vertex 4.927050983124842 0.0 -4.263355756877419
endloop
endfacet
facet normal 0 1 0
outer loop
vertex 4.927050983124842 0.0 -4.263355756877419
vertex 6.140576474687263 0.0 -0.145033635316129
vertex 6.140576474687263 0.0 -5.145033635316129
endloop
endfacet
facet normal 0 1 0
outer loop
vertex 6.140576474687263 0.0 -5.145033635316129
vertex 7.354101966249685 0.0 -1.0267115137548388
vertex 7.354101966249685 0.0 -6.026711513754839
endloop
endfacet
facet normal 0 1 0
outer loop
vertex 7.354101966249685 0.0 -6.026711513754839
vertex 8.567627457812106 0.0 -1.9083893921935484
vertex 8.567627457812106 0.0 -6.908389392193549
endloop
endfacet
facet normal 0 1 0
outer loop
vertex 8.567627457812106 0.0 -6.908389392193549
vertex 9.781152949374528 0.0 -2.790067270632258
vertex 9.781152949374528 0.0 -7.790067270632259
endloop
endfacet
facet normal 0 1 0
outer loop
vertex 9.781152949374528 0.0 -7.790067270632259
vertex 10.99467844093695 0.0 -3.6717451490709676
vertex 10.99467844093695 0.0 -8.671745149070968
endloop
endfacet
facet normal 0 1 0
outer loop
vertex 10.99467844093695 0.0 -8.671745149070968
vertex 12.208203932499371 0.0 -4.553423027509678
vertex 12.208203932499371 0.0 -9.553423027509679
endloop
endfacet
facet normal 0 1 0
outer loop
vertex 12.208203932499371 0.0 -9.553423027509679
vertex 13.421729424061793 0.0 -5.435100905948388
vertex 13.421729424061793 0.0 -10.435100905948389
endloop
endfacet
facet normal 0 1 0
outer loop
vertex 13.421729424061793 0.0 -10.435100905948389
vertex 14.635254915624214 0.0 -6.316778784387098
vertex 14.635254915624214 0.0 -11.316778784387099
endloop
endfacet
facet normal 0 1 0
outer loop
vertex -2.5 0.0 2.5
vertex -2.5 0.0 -2.5
vertex -3.713525491562421 0.0 1.6183221215612904
endloop
endfacet
facet normal 0 1 0
outer loop
vertex -3.713525491562421 0.0 1.6183221215612904
vertex -3.713525491562421 0.0 -3.3816778784387096
vertex -4.927050983124842 0.0 0.7366442431225807
endloop
endfacet
facet normal 0 1 0
outer loop
vertex -4.927050983124842 0.0 0.7366442431225807
vertex -4.927050983124842 0.0 -4.263355756877419
vertex -6.140576474687263 0.0 -0.145033635316129
endloop
endfacet
facet normal 0 1 0
outer loop
vertex -6.140576474687263 0.0 -0.145033635316129
vertex -6.140576474687263 0.0 -5.145033635316129
vertex -7.354101966249685 0.0 -1.0267115137548388
endloop
endfacet
facet normal 0 1 0
outer loop
vertex -7.354101966249685 0.0 -1.0267115137548388
vertex -7.354101966249685 0.0 -6.026711513754839
vertex -8.567627457812106 0.0 -1.9083893921935484
endloop
endfacet
facet normal 0 1 0
outer loop
vertex -8.567627457812106 0.0 -1.9083893921935484
vertex -8.567627457812106 0.0 -6.908389392193549
vertex -9.781152949374528 0.0 -2.790067270632258
endloop
endfacet
facet normal 0 1 0
outer loop
vertex -9.781152949374528 0.0 -2.790067270632258
vertex -9.781152949374528 0.0 -7.790067270632259
vertex -10.99467844093695 0.0 -3.6717451490709676
endloop
endfacet
facet normal 0 1 0
outer loop
vertex -10.99467844093695 0.0 -3.6717451490709676
vertex -10.99467844093695 0.0 -8.671745149070968
vertex -12.208203932499371 0.0 -4.553423027509678
endloop
endfacet
facet normal 0 1 0
outer loop
vertex -12.208203932499371 0.0 -4.553423027509678
vertex -12.208203932499371 0.0 -9.553423027509679
vertex -13.421729424061793 0.0 -5.435100905948388
endloop
endfacet
facet normal 0 1 0
outer loop
vertex -13.421729424061793 0.0 -5.435100905948388
vertex -13.421729424061793 0.0 -10.435100905948389
vertex -14.635254915624214 0.0 -6.316778784387098
endloop
endfacet
facet normal 0 1 0
outer loop
vertex -2.5 0.0 -2.5
vertex -3.713525491562421 0.0 -3.3816778784387096
vertex -3.713525491562421 0.0 1.6183221215612904
endloop
endfacet
facet normal 0 1 0
outer loop
vertex -3.713525491562421 0.0 -3.3816778784387096
vertex -4.927050983124842 0.0 -4.263355756877419
vertex -4.927050983124842 0.0 0.7366442431225807
endloop
endfacet
facet normal 0 1 0
outer loop
vertex -4.927050983124842 0.0 -4.263355756877419
vertex -6.140576474687263 0.0 -5.145033635316129
vertex -6.140576474687263 0.0 -0.145033635316129
endloop
endfacet
facet normal 0 1 0
outer loop
vertex -6.140576474687263 0.0 -5.145033635316129
vertex -7.354101966249685 0.0 -6.026711513754839
vertex -7.354101966249685 0.0 -1.0267115137548388
endloop
endfacet
facet normal 0 1 0
outer loop
vertex -7.354101966249685 0.0 -6.026711513754839
vertex -8.567627457812106 0.0 -6.908389392193549
vertex -8.567627457812106 0.0 -1.9083893921935484
endloop
endfacet
facet normal 0 1 0
outer loop
vertex -8.567627457812106 0.0 -6.908389392193549
vertex -9.781152949374528 0.0 -7.790067270632259
vertex -9.781152949374528 0.0 -2.790067270632258
endloop
endfacet
facet normal 0 1 0
outer loop
vertex -9.781152949374528 0.0 -7.790067270632259
vertex -10.99467844093695 0.0 -8.671745149070968
vertex -10.99467844093695 0.0 -3.6717451490709676
endloop
endfacet
facet normal 0 1 0
outer loop
vertex -10.99467844093695 0.0 -8.671745149070968
vertex -12.208203932499371 0.0 -9.553423027509679
vertex -12.208203932499371 0.0 -4.553423027509678
endloop
endfacet
facet normal 0 1 0
outer loop
vertex -12.208203932499371 0.0 -9.553423027509679
vertex -13.421729424061793 0.0 -10.435100905948389
vertex -13.421729424061793 0.0 -5.435100905948388
endloop
endfacet
facet normal 0 1 0
outer loop
vertex -13.421729424061793 0.0 -10.435100905948389
vertex -14.635254915624214 0.0 -11.316778784387099
vertex -14.635254915624214 0.0 -6.316778784387098
endloop
endfacet
facet normal 0 1 0
outer loop
vertex -2.5 0.0 2.5
vertex -2.5 0.0 4.0
vertex 2.5 0.0 2.5
endloop
endfacet
facet normal 0 1 0
outer loop
vertex -2.5 0.0 4.0
vertex -2.5 0.0 5.5
vertex 2.5 0.0 4.0
endloop
endfacet
facet normal 0 1 0
outer loop
vertex -2.5 0.0 5.5
vertex -2.5 0.0 7.0
vertex 2.5 0.0 5.5
endloop
endfacet
facet normal 0 1 0
outer loop
vertex -2.5 0.0 7.0
vertex -2.5 0.0 8.5
vertex 2.5 0.0 7.0
endloop
endfacet
facet normal 0 1 0
outer loop
vertex -2.5 0.0 8.5
vertex -2.5 0.0 10.0
vertex 2.5 0.0 8.5
endloop
endfacet
facet normal 0 1 0
outer loop
vertex -2.5 0.0 10.0
vertex -2.5 0.0 11.5
vertex 2.5 0.0 10.0
endloop
endfacet
facet normal 0 1 0
outer loop
vertex -2.5 0.0 11.5
vertex -2.5 0.0 13.0
vertex 2.5 0.0 11.5
endloop
endfacet
facet normal 0 1 0
outer loop
vertex -2.5 0.0 13.0
vertex -2.5 0.0 14.5
vertex 2.5 0.0 13.0
endloop
endfacet
facet normal 0 1 0
outer loop
vertex -2.5 0.0 14.5
vertex -2.5 0.0 16.0
vertex 2.5 0.0 14.5
endloop
endfacet
facet normal 0 1 0
outer loop
vertex -2.5 0.0 16.0
vertex -2.5 0.0 17.5
vertex 2.5 0.0 16.0
endloop
endfacet
facet normal 0 1 0
outer loop
vertex 2.5 0.0 2.5
vertex -2.5 0.0 4.0
vertex 2.5 0.0 4.0
endloop
endfacet
facet normal 0 1 0
outer loop
vertex 2.5 0.0 4.0
vertex -2.5 0.0 5.5
vertex 2.5 0.0 5.5
endloop
endfacet
facet normal 0 1 0
outer loop
vertex 2.5 0.0 5.5
vertex -2.5 0.0 7.0
vertex 2.5 0.0 7.0
endloop
endfacet
facet normal 0 1 0
outer loop
vertex 2.5 0.0 7.0
vertex -2.5 0.0 8.5
vertex 2.5 0.0 8.5
endloop
endfacet
facet normal 0 1 0
outer loop
vertex 2.5 0.0 8.5
vertex -2.5 0.0 10.0
vertex 2.5 0.0 10.0
endloop
endfacet
facet normal 0 1 0
outer loop
vertex 2.5 0.0 10.0
vertex -2.5 0.0 11.5
vertex 2.5 0.0 11.5
endloop
endfacet
facet normal 0 1 0
outer loop
vertex 2.5 0.0 11.5
vertex -2.5 0.0 13.0
vertex 2.5 0.0 13.0
endloop
endfacet
facet normal 0 1 0
outer loop
vertex 2.5 0.0 13.0
vertex -2.5 0.0 14.5
vertex 2.5 0.0 14.5
endloop
endfacet
facet normal 0 1 0
outer loop
vertex 2.5 0.0 14.5
vertex -2.5 0.0 16.0
vertex 2.5 0.0 16.0
endloop
endfacet
facet normal 0 1 0
outer loop
vertex 2.5 0.0 16.0
vertex -2.5 0.0 17.5
vertex 2.5 0.0 17.5
endloop
endfacet
endsolid AssimpScene
