solid AssimpScene
facet normal 0 1 0
outer loop
vertex 3.0 0.0 3.0
vertex 4.213525491562422 0.0 2.1183221215612904
vertex 3.0 0.0 -3.0
endloop
endfacet
facet normal 0 1 0
outer loop
vertex 4.213525491562422 0.0 2.1183221215612904
vertex 5.427050983124843 0.0 1.2366442431225808
vertex 4.213525491562422 0.0 -3.8816778784387096
endloop
endfacet
facet normal 0 1 0
outer loop
vertex 5.427050983124843 0.0 1.2366442431225808
vertex 6.640576474687265 0.0 0.3549663646838711
vertex 5.427050983124843 0.0 -4.763355756877419
endloop
endfacet
facet normal 0 1 0
outer loop
vertex 6.640576474687265 0.0 0.3549663646838711
vertex 7.8541019662496865 0.0 -0.5267115137548386
vertex 6.640576474687265 0.0 -5.645033635316129
endloop
endfacet
facet normal 0 1 0
outer loop
vertex 7.8541019662496865 0.0 -0.5267115137548386
vertex 9.067627457812108 0.0 -1.4083893921935484
vertex 7.8541019662496865 0.0 -6.526711513754839
endloop
endfacet
facet normal 0 1 0
outer loop
vertex 9.067627457812108 0.0 -1.4083893921935484
vertex 10.28115294937453 0.0 -2.290067270632258
vertex 9.067627457812108 0.0 -7.408389392193549
endloop
endfacet
facet normal 0 1 0
outer loop
vertex 10.28115294937453 0.0 -2.290067270632258
vertex 11.494678440936951 0.0 -3.1717451490709676
vertex 10.28115294937453 0.0 -8.290067270632258
endloop
endfacet
facet normal 0 1 0
outer loop
vertex 11.494678440936951 0.0 -3.1717451490709676
vertex 12.708203932499373 0.0 -4.053423027509678
vertex 11.494678440936951 0.0 -9.171745149070968
endloop
endfacet
facet normal 0 1 0
outer loop
vertex 12.708203932499373 0.0 -4.053423027509678
vertex 13.921729424061795 0.0 -4.935100905948388
vertex 12.708203932499373 0.0 -10.053423027509679
endloop
endfacet
facet normal 0 1 0
outer loop
vertex 13.921729424061795 0.0 -4.935100905948388
vertex 15.135254915624216 0.0 -5.816778784387098
vertex 13.921729424061795 0.0 -10.935100905948389
endloop
endfacet
facet normal 0 1 0
outer loop
vertex 15.135254915624216 0.0 -5.816778784387098
vertex 16.348780407186638 0.0 -6.698456662825808
vertex 15.135254915624216 0.0 -11.816778784387099
endloop
endfacet
facet normal 0 1 0
outer loop
vertex 16.348780407186638 0.0 -6.698456662825808
vertex 17.56230589874906 0.0 -7.580134541264518
vertex 16.348780407186638 0.0 -12.698456662825809
endloop
endfacet
facet normal 0 1 0
outer loop
vertex 17.56230589874906 0.0 -7.580134541264518
vertex 18.77583139031148 0.0 -8.461812419703227
vertex 17.56230589874906 0.0 -13.580134541264519
endloop
endfacet
facet normal 0 1 0
outer loop
vertex 18.77583139031148 0.0 -8.461812419703227
vertex 19.989356881873903 0.0 -9.343490298141937
vertex 18.77583139031148 0.0 -14.461812419703229
endloop
endfacet
facet normal 0 1 0
outer loop
vertex 19.989356881873903 0.0 -9.343490298141937
vertex 21.202882373436324 0.0 -10.225168176580647
vertex 19.989356881873903 0.0 -15.343490298141939
endloop
endfacet
facet normal 0 1 0
outer loop
vertex 21.202882373436324 0.0 -10.225168176580647
vertex 22.416407864998746 0.0 -11.106846055019357
vertex 21.202882373436324 0.0 -16.22516817658065
endloop
endfacet
facet normal 0 1 0
outer loop
vertex 22.416407864998746 0.0 -11.106846055019357
vertex 23.629933356561168 0.0 -11.988523933458067
vertex 22.416407864998746 0.0 -17.106846055019357
endloop
endfacet
facet normal 0 1 0
outer loop
vertex 23.629933356561168 0.0 -11.988523933458067
vertex 24.84345884812359 0.0 -12.870201811896777
vertex 23.629933356561168 0.0 -17.988523933458065
endloop
endfacet
facet normal 0 1 0
outer loop
vertex 24.84345884812359 0.0 -12.870201811896777
vertex 26.05698433968601 0.0 -13.751879690335487
vertex 24.84345884812359 0.0 -18.870201811896774
endloop
endfacet
facet normal 0 1 0
outer loop
vertex 26.05698433968601 0.0 -13.751879690335487
vertex 27.270509831248432 0.0 -14.633557568774197
vertex 26.05698433968601 0.0 -19.751879690335482
endloop
endfacet
facet normal 0 1 0
outer loop
vertex 27.270509831248432 0.0 -14.633557568774197
vertex 28.484035322810854 0.0 -15.515235447212907
vertex 27.270509831248432 0.0 -20.63355756877419
endloop
endfacet
facet normal 0 1 0
outer loop
vertex 28.484035322810854 0.0 -15.515235447212907
vertex 29.697560814373276 0.0 -16.396913325651617
vertex 28.484035322810854 0.0 -21.5152354472129
endloop
endfacet
facet normal 0 1 0
outer loop
vertex 29.697560814373276 0.0 -16.396913325651617
vertex 30.911086305935697 0.0 -17.278591204090326
vertex 29.697560814373276 0.0 -22.396913325651607
endloop
endfacet
facet normal 0 1 0
outer loop
vertex 30.911086305935697 0.0 -17.278591204090326
vertex 32.12461179749812 0.0 -18.160269082529034
vertex 30.911086305935697 0.0 -23.278591204090315
endloop
endfacet
facet normal 0 1 0
outer loop
vertex 32.12461179749812 0.0 -18.160269082529034
vertex 33.33813728906054 0.0 -19.041946960967742
vertex 32.12461179749812 0.0 -24.160269082529023
endloop
endfacet
facet normal 0 1 0
outer loop
vertex 33.33813728906054 0.0 -19.041946960967742
vertex 34.55166278062296 0.0 -19.92362483940645
vertex 33.33813728906054 0.0 -25.04194696096773
endloop
endfacet
facet normal 0 1 0
outer loop
vertex 3.0 0.0 -3.0
vertex 4.213525491562422 0.0 2.1183221215612904
vertex 4.213525491562422 0.0 -3.8816778784387096
endloop
endfacet
facet normal 0 1 0
outer loop
vertex 4.213525491562422 0.0 -3.8816778784387096
vertex 5.427050983124843 0.0 1.2366442431225808
vertex 5.427050983124843 0.0 -4.763355756877419
endloop
endfacet
facet normal 0 1 0
outer loop
vertex 5.427050983124843 0.0 -4.763355756877419
vertex 6.640576474687265 0.0 0.3549663646838711
vertex 6.640576474687265 0.0 -5.645033635316129
endloop
endfacet
facet normal 0 1 0
outer loop
vertex 6.640576474687265 0.0 -5.645033635316129
vertex 7.8541019662496865 0.0 -0.5267115137548386
vertex 7.8541019662496865 0.0 -6.526711513754839
endloop
endfacet
facet normal 0 1 0
outer loop
vertex 7.8541019662496865 0.0 -6.526711513754839
vertex 9.067627457812108 0.0 -1.4083893921935484
vertex 9.067627457812108 0.0 -7.408389392193549
endloop
endfacet
facet normal 0 1 0
outer loop
vertex 9.067627457812108 0.0 -7.408389392193549
vertex 10.28115294937453 0.0 -2.290067270632258
vertex 10.28115294937453 0.0 -8.290067270632258
endloop
endfacet
facet normal 0 1 0
outer loop
vertex 10.28115294937453 0.0 -8.290067270632258
vertex 11.494678440936951 0.0 -3.1717451490709676
vertex 11.494678440936951 0.0 -9.171745149070968
endloop
endfacet
facet normal 0 1 0
outer loop
vertex 11.494678440936951 0.0 -9.171745149070968
vertex 12.708203932499373 0.0 -4.053423027509678
vertex 12.708203932499373 0.0 -10.053423027509679
endloop
endfacet
facet normal 0 1 0
outer loop
vertex 12.708203932499373 0.0 -10.053423027509679
vertex 13.921729424061795 0.0 -4.935100905948388
vertex 13.921729424061795 0.0 -10.935100905948389
endloop
endfacet
facet normal 0 1 0
outer loop
vertex 13.921729424061795 0.0 -10.935100905948389
vertex 15.135254915624216 0.0 -5.816778784387098
vertex 15.135254915624216 0.0 -11.816778784387099
endloop
endfacet
facet normal 0 1 0
outer loop
vertex 15.135254915624216 0.0 -11.816778784387099
vertex 16.348780407186638 0.0 -6.698456662825808
vertex 16.348780407186638 0.0 -12.698456662825809
endloop
endfacet
facet normal 0 1 0
outer loop
vertex 16.348780407186638 0.0 -12.698456662825809
vertex 17.56230589874906 0.0 -7.580134541264518
vertex 17.56230589874906 0.0 -13.580134541264519
endloop
endfacet
facet normal 0 1 0
outer loop
vertex 17.56230589874906 0.0 -13.580134541264519
vertex 18.77583139031148 0.0 -8.461812419703227
vertex 18.77583139031148 0.0 -14.461812419703229
endloop
endfacet
facet normal 0 1 0
outer loop
vertex 18.77583139031148 0.0 -14.461812419703229
vertex 19.989356881873903 0.0 -9.343490298141937
vertex 19.989356881873903 0.0 -15.343490298141939
endloop
endfacet
facet normal 0 1 0
outer loop
vertex 19.989356881873903 0.0 -15.343490298141939
vertex 21.202882373436324 0.0 -10.225168176580647
vertex 21.202882373436324 0.0 -16.22516817658065
endloop
endfacet
facet normal 0 1 0
outer loop
vertex 21.202882373436324 0.0 -16.22516817658065
vertex 22.416407864998746 0.0 -11.106846055019357
vertex 22.416407864998746 0.0 -17.106846055019357
endloop
endfacet
facet normal 0 1 0
outer loop
vertex 22.416407864998746 0.0 -17.106846055019357
vertex 23.629933356561168 0.0 -11.988523933458067
vertex 23.629933356561168 0.0 -17.988523933458065
endloop
endfacet
facet normal 0 1 0
outer loop
vertex 23.629933356561168 0.0 -17.988523933458065
vertex 24.84345884812359 0.0 -12.870201811896777
vertex 24.84345884812359 0.0 -18.870201811896774
endloop
endfacet
facet normal 0 1 0
outer loop
vertex 24.84345884812359 0.0 -18.870201811896774
vertex 26.05698433968601 0.0 -13.751879690335487
vertex 26.05698433968601 0.0 -19.751879690335482
endloop
endfacet
facet normal 0 1 0
outer loop
vertex 26.05698433968601 0.0 -19.751879690335482
vertex 27.270509831248432 0.0 -14.633557568774197
vertex 27.270509831248432 0.0 -20.63355756877419
endloop
endfacet
facet normal 0 1 0
outer loop
vertex 27.270509831248432 0.0 -20.63355756877419
vertex 28.484035322810854 0.0 -15.515235447212907
vertex 28.484035322810854 0.0 -21.5152354472129
endloop
endfacet
facet normal 0 1 0
outer loop
vertex 28.484035322810854 0.0 -21.5152354472129
vertex 29.697560814373276 0.0 -16.396913325651617
vertex 29.697560814373276 0.0 -22.396913325651607
endloop
endfacet
facet normal 0 1 0
outer loop
vertex 29.697560814373276 0.0 -22.396913325651607
vertex 30.911086305935697 0.0 -17.278591204090326
vertex 30.911086305935697 0.0 -23.278591204090315
endloop
endfacet
facet normal 0 1 0
outer loop
vertex 30.911086305935697 0.0 -23.278591204090315
vertex 32.12461179749812 0.0 -18.160269082529034
vertex 32.12461179749812 0.0 -24.160269082529023
endloop
endfacet
facet normal 0 1 0
outer loop
vertex 32.12461179749812 0.0 -24.160269082529023
vertex 33.33813728906054 0.0 -19.041946960967742
vertex 33.33813728906054 0.0 -25.04194696096773
endloop
endfacet
facet normal 0 1 0
outer loop
vertex 33.33813728906054 0.0 -25.04194696096773
vertex 34.55166278062296 0.0 -19.92362483940645
vertex 34.55166278062296 0.0 -25.92362483940644
endloop
endfacet
facet normal 0 1 0
outer loop
vertex -3.0 0.0 3.0
vertex -3.0 0.0 -3.0
vertex -4.213525491562422 0.0 2.1183221215612904
endloop
endfacet
facet normal 0 1 0
outer loop
vertex -4.213525491562422 0.0 2.1183221215612904
vertex -4.213525491562422 0.0 -3.8816778784387096
vertex -5.427050983124843 0.0 1.2366442431225808
endloop
endfacet
facet normal 0 1 0
outer loop
vertex -5.427050983124843 0.0 1.2366442431225808
vertex -5.427050983124843 0.0 -4.763355756877419
vertex -6.640576474687265 0.0 0.3549663646838711
endloop
endfacet
facet normal 0 1 0
outer loop
vertex -6.640576474687265 0.0 0.3549663646838711
vertex -6.640576474687265 0.0 -5.645033635316129
vertex -7.8541019662496865 0.0 -0.5267115137548386
endloop
endfacet
facet normal 0 1 0
outer loop
vertex -7.8541019662496865 0.0 -0.5267115137548386
vertex -7.8541019662496865 0.0 -6.526711513754839
vertex -9.067627457812108 0.0 -1.4083893921935484
endloop
endfacet
facet normal 0 1 0
outer loop
vertex -9.067627457812108 0.0 -1.4083893921935484
vertex -9.067627457812108 0.0 -7.408389392193549
vertex -10.28115294937453 0.0 -2.290067270632258
endloop
endfacet
facet normal 0 1 0
outer loop
vertex -10.28115294937453 0.0 -2.290067270632258
vertex -10.28115294937453 0.0 -8.290067270632258
vertex -11.494678440936951 0.0 -3.1717451490709676
endloop
endfacet
facet normal 0 1 0
outer loop
vertex -11.494678440936951 0.0 -3.1717451490709676
vertex -11.494678440936951 0.0 -9.171745149070968
vertex -12.708203932499373 0.0 -4.053423027509678
endloop
endfacet
facet normal 0 1 0
outer loop
vertex -12.708203932499373 0.0 -4.053423027509678
vertex -12.708203932499373 0.0 -10.053423027509679
vertex -13.921729424061795 0.0 -4.935100905948388
endloop
endfacet
facet normal 0 1 0
outer loop
vertex -13.921729424061795 0.0 -4.935100905948388
vertex -13.921729424061795 0.0 -10.935100905948389
vertex -15.135254915624216 0.0 -5.816778784387098
endloop
endfacet
facet normal 0 1 0
outer loop
vertex -15.135254915624216 0.0 -5.816778784387098
vertex -15.135254915624216 0.0 -11.816778784387099
vertex -16.348780407186638 0.0 -6.698456662825808
endloop
endfacet
facet normal 0 1 0
outer loop
vertex -16.348780407186638 0.0 -6.698456662825808
vertex -16.348780407186638 0.0 -12.698456662825809
vertex -17.56230589874906 0.0 -7.580134541264518
endloop
endfacet
facet normal 0 1 0
outer loop
vertex -17.56230589874906 0.0 -7.580134541264518
vertex -17.56230589874906 0.0 -13.580134541264519
vertex -18.77583139031148 0.0 -8.461812419703227
endloop
endfacet
facet normal 0 1 0
outer loop
vertex -18.77583139031148 0.0 -8.461812419703227
vertex -18.77583139031148 0.0 -14.461812419703229
vertex -19.989356881873903 0.0 -9.343490298141937
endloop
endfacet
facet normal 0 1 0
outer loop
vertex -19.989356881873903 0.0 -9.343490298141937
vertex -19.989356881873903 0.0 -15.343490298141939
vertex -21.202882373436324 0.0 -10.225168176580647
endloop
endfacet
facet normal 0 1 0
outer loop
vertex -21.202882373436324 0.0 -10.225168176580647
vertex -21.202882373436324 0.0 -16.22516817658065
vertex -22.416407864998746 0.0 -11.106846055019357
endloop
endfacet
facet normal 0 1 0
outer loop
vertex -22.416407864998746 0.0 -11.106846055019357
vertex -22.416407864998746 0.0 -17.106846055019357
vertex -23.629933356561168 0.0 -11.988523933458067
endloop
endfacet
facet normal 0 1 0
outer loop
vertex -23.629933356561168 0.0 -11.988523933458067
vertex -23.629933356561168 0.0 -17.988523933458065
vertex -24.84345884812359 0.0 -12.870201811896777
endloop
endfacet
facet normal 0 1 0
outer loop
vertex -24.84345884812359 0.0 -12.870201811896777
vertex -24.84345884812359 0.0 -18.870201811896774
vertex -26.05698433968601 0.0 -13.751879690335487
endloop
endfacet
facet normal 0 1 0
outer loop
vertex -26.05698433968601 0.0 -13.751879690335487
vertex -26.05698433968601 0.0 -19.751879690335482
vertex -27.270509831248432 0.0 -14.633557568774197
endloop
endfacet
facet normal 0 1 0
outer loop
vertex -27.270509831248432 0.0 -14.633557568774197
vertex -27.270509831248432 0.0 -20.63355756877419
vertex -28.484035322810854 0.0 -15.515235447212907
endloop
endfacet
facet normal 0 1 0
outer loop
vertex -28.484035322810854 0.0 -15.515235447212907
vertex -28.484035322810854 0.0 -21.5152354472129
vertex -29.697560814373276 0.0 -16.396913325651617
endloop
endfacet
facet normal 0 1 0
outer loop
vertex -29.697560814373276 0.0 -16.396913325651617
vertex -29.697560814373276 0.0 -22.396913325651607
vertex -30.911086305935697 0.0 -17.278591204090326
endloop
endfacet
facet normal 0 1 0
outer loop
vertex -30.911086305935697 0.0 -17.278591204090326
vertex -30.911086305935697 0.0 -23.278591204090315
vertex -32.12461179749812 0.0 -18.160269082529034
endloop
endfacet
facet normal 0 1 0
outer loop
vertex -32.12461179749812 0.0 -18.160269082529034
vertex -32.12461179749812 0.0 -24.160269082529023
vertex -33.33813728906054 0.0 -19.041946960967742
endloop
endfacet
facet normal 0 1 0
outer loop
vertex -33.33813728906054 0.0 -19.041946960967742
vertex -33.33813728906054 0.0 -25.04194696096773
vertex -34.55166278062296 0.0 -19.92362483940645
endloop
endfacet
facet normal 0 1 0
outer loop
vertex -3.0 0.0 -3.0
vertex -4.213525491562422 0.0 -3.8816778784387096
vertex -4.213525491562422 0.0 2.1183221215612904
endloop
endfacet
facet normal 0 1 0
outer loop
vertex -4.213525491562422 0.0 -3.8816778784387096
vertex -5.427050983124843 0.0 -4.763355756877419
vertex -5.427050983124843 0.0 1.2366442431225808
endloop
endfacet
facet normal 0 1 0
outer loop
vertex -5.427050983124843 0.0 -4.763355756877419
vertex -6.640576474687265 0.0 -5.645033635316129
vertex -6.640576474687265 0.0 0.3549663646838711
endloop
endfacet
facet normal 0 1 0
outer loop
vertex -6.640576474687265 0.0 -5.645033635316129
vertex -7.8541019662496865 0.0 -6.526711513754839
vertex -7.8541019662496865 0.0 -0.5267115137548386
endloop
endfacet
facet normal 0 1 0
outer loop
vertex -7.8541019662496865 0.0 -6.526711513754839
vertex -9.067627457812108 0.0 -7.408389392193549
vertex -9.067627457812108 0.0 -1.4083893921935484
endloop
endfacet
facet normal 0 1 0
outer loop
vertex -9.067627457812108 0.0 -7.408389392193549
vertex -10.28115294937453 0.0 -8.290067270632258
vertex -10.28115294937453 0.0 -2.290067270632258
endloop
endfacet
facet normal 0 1 0
outer loop
vertex -10.28115294937453 0.0 -8.290067270632258
vertex -11.494678440936951 0.0 -9.171745149070968
vertex -11.494678440936951 0.0 -3.1717451490709676
endloop
endfacet
facet normal 0 1 0
outer loop
vertex -11.494678440936951 0.0 -9.171745149070968
vertex -12.708203932499373 0.0 -10.053423027509679
vertex -12.708203932499373 0.0 -4.053423027509678
endloop
endfacet
facet normal 0 1 0
outer loop
vertex -12.708203932499373 0.0 -10.053423027509679
vertex -13.921729424061795 0.0 -10.935100905948389
vertex -13.921729424061795 0.0 -4.935100905948388
endloop
endfacet
facet normal 0 1 0
outer loop
vertex -13.921729424061795 0.0 -10.935100905948389
vertex -15.135254915624216 0.0 -11.816778784387099
vertex -15.135254915624216 0.0 -5.816778784387098
endloop
endfacet
facet normal 0 1 0
outer loop
vertex -15.135254915624216 0.0 -11.816778784387099
vertex -16.348780407186638 0.0 -12.698456662825809
vertex -16.348780407186638 0.0 -6.698456662825808
endloop
endfacet
facet normal 0 1 0
outer loop
vertex -16.348780407186638 0.0 -12.698456662825809
vertex -17.56230589874906 0.0 -13.580134541264519
vertex -17.56230589874906 0.0 -7.580134541264518
endloop
endfacet
facet normal 0 1 0
outer loop
vertex -17.56230589874906 0.0 -13.580134541264519
vertex -18.77583139031148 0.0 -14.461812419703229
vertex -18.77583139031148 0.0 -8.461812419703227
endloop
endfacet
facet normal 0 1 0
outer loop
vertex -18.77583139031148 0.0 -14.461812419703229
vertex -19.989356881873903 0.0 -15.343490298141939
vertex -19.989356881873903 0.0 -9.343490298141937
endloop
endfacet
facet normal 0 1 0
outer loop
vertex -19.989356881873903 0.0 -15.343490298141939
vertex -21.202882373436324 0.0 -16.22516817658065
vertex -21.202882373436324 0.0 -10.225168176580647
endloop
endfacet
facet normal 0 1 0
outer loop
vertex -21.202882373436324 0.0 -16.22516817658065
vertex -22.416407864998746 0.0 -17.106846055019357
vertex -22.416407864998746 0.0 -11.106846055019357
endloop
endfacet
facet normal 0 1 0
outer loop
vertex -22.416407864998746 0.0 -17.106846055019357
vertex -23.629933356561168 0.0 -17.988523933458065
vertex -23.629933356561168 0.0 -11.988523933458067
endloop
endfacet
facet normal 0 1 0
outer loop
vertex -23.629933356561168 0.0 -17.988523933458065
vertex -24.84345884812359 0.0 -18.870201811896774
vertex -24.84345884812359 0.0 -12.870201811896777
endloop
endfacet
facet normal 0 1 0
outer loop
vertex -24.84345884812359 0.0 -18.870201811896774
vertex -26.05698433968601 0.0 -19.751879690335482
vertex -26.05698433968601 0.0 -13.751879690335487
endloop
endfacet
facet normal 0 1 0
outer loop
vertex -26.05698433968601 0.0 -19.751879690335482
vertex -27.270509831248432 0.0 -20.63355756877419
vertex -27.270509831248432 0.0 -14.633557568774197
endloop
endfacet
facet normal 0 1 0
outer loop
vertex -27.270509831248432 0.0 -20.63355756877419
vertex -28.484035322810854 0.0 -21.5152354472129
vertex -28.484035322810854 0.0 -15.515235447212907
endloop
endfacet
facet normal 0 1 0
outer loop
vertex -28.484035322810854 0.0 -21.5152354472129
vertex -29.697560814373276 0.0 -22.396913325651607
vertex -29.697560814373276 0.0 -16.396913325651617
endloop
endfacet
facet normal 0 1 0
outer loop
vertex -29.697560814373276 0.0 -22.396913325651607
vertex -30.911086305935697 0.0 -23.278591204090315
vertex -30.911086305935697 0.0 -17.278591204090326
endloop
endfacet
facet normal 0 1 0
outer loop
vertex -30.911086305935697 0.0 -23.278591204090315
vertex -32.12461179749812 0.0 -24.160269082529023
vertex -32.12461179749812 0.0 -18.160269082529034
endloop
endfacet
facet normal 0 1 0
outer loop
vertex -32.12461179749812 0.0 -24.160269082529023
vertex -33.33813728906054 0.0 -25.04194696096773
vertex -33.33813728906054 0.0 -19.041946960967742
endloop
endfacet
facet normal 0 1 0
outer loop
vertex -33.33813728906054 0.0 -25.04194696096773
vertex -34.55166278062296 0.0 -25.92362483940644
vertex -34.55166278062296 0.0 -19.92362483940645
endloop
endfacet
facet normal 0 1 0
outer loop
vertex -3.0 0.0 3.0
vertex -3.0 0.0 4.5
vertex 3.0 0.0 3.0
endloop
endfacet
facet normal 0 1 0
outer loop
vertex -3.0 0.0 4.5
vertex -3.0 0.0 6.0
vertex 3.0 0.0 4.5
endloop
endfacet
facet normal 0 1 0
outer loop
vertex -3.0 0.0 6.0
vertex -3.0 0.0 7.5
vertex 3.0 0.0 6.0
endloop
endfacet
facet normal 0 1 0
outer loop
vertex -3.0 0.0 7.5
vertex -3.0 0.0 9.0
vertex 3.0 0.0 7.5
endloop
endfacet
facet normal 0 1 0
outer loop
vertex -3.0 0.0 9.0
vertex -3.0 0.0 10.5
vertex 3.0 0.0 9.0
endloop
endfacet
facet normal 0 1 0
outer loop
vertex -3.0 0.0 10.5
vertex -3.0 0.0 12.0
vertex 3.0 0.0 10.5
endloop
endfacet
facet normal 0 1 0
outer loop
vertex -3.0 0.0 12.0
vertex -3.0 0.0 13.5
vertex 3.0 0.0 12.0
endloop
endfacet
facet normal 0 1 0
outer loop
vertex -3.0 0.0 13.5
vertex -3.0 0.0 15.0
vertex 3.0 0.0 13.5
endloop
endfacet
facet normal 0 1 0
outer loop
vertex -3.0 0.0 15.0
vertex -3.0 0.0 16.5
vertex 3.0 0.0 15.0
endloop
endfacet
facet normal 0 1 0
outer loop
vertex -3.0 0.0 16.5
vertex -3.0 0.0 18.0
vertex 3.0 0.0 16.5
endloop
endfacet
facet normal 0 1 0
outer loop
vertex -3.0 0.0 18.0
vertex -3.0 0.0 19.5
vertex 3.0 0.0 18.0
endloop
endfacet
facet normal 0 1 0
outer loop
vertex -3.0 0.0 19.5
vertex -3.0 0.0 21.0
vertex 3.0 0.0 19.5
endloop
endfacet
facet normal 0 1 0
outer loop
vertex -3.0 0.0 21.0
vertex -3.0 0.0 22.5
vertex 3.0 0.0 21.0
endloop
endfacet
facet normal 0 1 0
outer loop
vertex -3.0 0.0 22.5
vertex -3.0 0.0 24.0
vertex 3.0 0.0 22.5
endloop
endfacet
facet normal 0 1 0
outer loop
vertex -3.0 0.0 24.0
vertex -3.0 0.0 25.5
vertex 3.0 0.0 24.0
endloop
endfacet
facet normal 0 1 0
outer loop
vertex -3.0 0.0 25.5
vertex -3.0 0.0 27.0
vertex 3.0 0.0 25.5
endloop
endfacet
facet normal 0 1 0
outer loop
vertex -3.0 0.0 27.0
vertex -3.0 0.0 28.5
vertex 3.0 0.0 27.0
endloop
endfacet
facet normal 0 1 0
outer loop
vertex -3.0 0.0 28.5
vertex -3.0 0.0 30.0
vertex 3.0 0.0 28.5
endloop
endfacet
facet normal 0 1 0
outer loop
vertex -3.0 0.0 30.0
vertex -3.0 0.0 31.5
vertex 3.0 0.0 30.0
endloop
endfacet
facet normal 0 1 0
outer loop
vertex -3.0 0.0 31.5
vertex -3.0 0.0 33.0
vertex 3.0 0.0 31.5
endloop
endfacet
facet normal 0 1 0
outer loop
vertex -3.0 0.0 33.0
vertex -3.0 0.0 34.5
vertex 3.0 0.0 33.0
endloop
endfacet
facet normal 0 1 0
outer loop
vertex -3.0 0.0 34.5
vertex -3.0 0.0 36.0
vertex 3.0 0.0 34.5
endloop
endfacet
facet normal 0 1 0
outer loop
vertex -3.0 0.0 36.0
vertex -3.0 0.0 37.5
vertex 3.0 0.0 36.0
endloop
endfacet
facet normal 0 1 0
outer loop
vertex -3.0 0.0 37.5
vertex -3.0 0.0 39.0
vertex 3.0 0.0 37.5
endloop
endfacet
facet normal 0 1 0
outer loop
vertex -3.0 0.0 39.0
vertex -3.0 0.0 40.5
vertex 3.0 0.0 39.0
endloop
endfacet
facet normal 0 1 0
outer loop
vertex -3.0 0.0 40.5
vertex -3.0 0.0 42.0
vertex 3.0 0.0 40.5
endloop
endfacet
facet normal 0 1 0
outer loop
vertex 3.0 0.0 3.0
vertex -3.0 0.0 4.5
vertex 3.0 0.0 4.5
endloop
endfacet
facet normal 0 1 0
outer loop
vertex 3.0 0.0 4.5
vertex -3.0 0.0 6.0
vertex 3.0 0.0 6.0
endloop
endfacet
facet normal 0 1 0
outer loop
vertex 3.0 0.0 6.0
vertex -3.0 0.0 7.5
vertex 3.0 0.0 7.5
endloop
endfacet
facet normal 0 1 0
outer loop
vertex 3.0 0.0 7.5
vertex -3.0 0.0 9.0
vertex 3.0 0.0 9.0
endloop
endfacet
facet normal 0 1 0
outer loop
vertex 3.0 0.0 9.0
vertex -3.0 0.0 10.5
vertex 3.0 0.0 10.5
endloop
endfacet
facet normal 0 1 0
outer loop
vertex 3.0 0.0 10.5
vertex -3.0 0.0 12.0
vertex 3.0 0.0 12.0
endloop
endfacet
facet normal 0 1 0
outer loop
vertex 3.0 0.0 12.0
vertex -3.0 0.0 13.5
vertex 3.0 0.0 13.5
endloop
endfacet
facet normal 0 1 0
outer loop
vertex 3.0 0.0 13.5
vertex -3.0 0.0 15.0
vertex 3.0 0.0 15.0
endloop
endfacet
facet normal 0 1 0
outer loop
vertex 3.0 0.0 15.0
vertex -3.0 0.0 16.5
vertex 3.0 0.0 16.5
endloop
endfacet
facet normal 0 1 0
outer loop
vertex 3.0 0.0 16.5
vertex -3.0 0.0 18.0
vertex 3.0 0.0 18.0
endloop
endfacet
facet normal 0 1 0
outer loop
vertex 3.0 0.0 18.0
vertex -3.0 0.0 19.5
vertex 3.0 0.0 19.5
endloop
endfacet
facet normal 0 1 0
outer loop
vertex 3.0 0.0 19.5
vertex -3.0 0.0 21.0
vertex 3.0 0.0 21.0
endloop
endfacet
facet normal 0 1 0
outer loop
vertex 3.0 0.0 21.0
vertex -3.0 0.0 22.5
vertex 3.0 0.0 22.5
endloop
endfacet
facet normal 0 1 0
outer loop
vertex 3.0 0.0 22.5
vertex -3.0 0.0 24.0
vertex 3.0 0.0 24.0
endloop
endfacet
facet normal 0 1 0
outer loop
vertex 3.0 0.0 24.0
vertex -3.0 0.0 25.5
vertex 3.0 0.0 25.5
endloop
endfacet
facet normal 0 1 0
outer loop
vertex 3.0 0.0 25.5
vertex -3.0 0.0 27.0
vertex 3.0 0.0 27.0
endloop
endfacet
facet normal 0 1 0
outer loop
vertex 3.0 0.0 27.0
vertex -3.0 0.0 28.5
vertex 3.0 0.0 28.5
endloop
endfacet
facet normal 0 1 0
outer loop
vertex 3.0 0.0 28.5
vertex -3.0 0.0 30.0
vertex 3.0 0.0 30.0
endloop
endfacet
facet normal 0 1 0
outer loop
vertex 3.0 0.0 30.0
vertex -3.0 0.0 31.5
vertex 3.0 0.0 31.5
endloop
endfacet
facet normal 0 1 0
outer loop
vertex 3.0 0.0 31.5
vertex -3.0 0.0 33.0
vertex 3.0 0.0 33.0
endloop
endfacet
facet normal 0 1 0
outer loop
vertex 3.0 0.0 33.0
vertex -3.0 0.0 34.5
vertex 3.0 0.0 34.5
endloop
endfacet
facet normal 0 1 0
outer loop
vertex 3.0 0.0 34.5
vertex -3.0 0.0 36.0
vertex 3.0 0.0 36.0
endloop
endfacet
facet normal 0 1 0
outer loop
vertex 3.0 0.0 36.0
vertex -3.0 0.0 37.5
vertex 3.0 0.0 37.5
endloop
endfacet
facet normal 0 1 0
outer loop
vertex 3.0 0.0 37.5
vertex -3.0 0.0 39.0
vertex 3.0 0.0 39.0
endloop
endfacet
facet normal 0 1 0
outer loop
vertex 3.0 0.0 39.0
vertex -3.0 0.0 40.5
vertex 3.0 0.0 40.5
endloop
endfacet
facet normal 0 1 0
outer loop
vertex 3.0 0.0 40.5
vertex -3.0 0.0 42.0
vertex 3.0 0.0 42.0
endloop
endfacet
endsolid AssimpScene
